<?xml version="1.0" encoding="UTF-8"?>
<svg width="64px" height="200px" viewBox="0 0 64 200" version="1.1" xmlns="http://www.w3.org/2000/svg" xmlns:xlink="http://www.w3.org/1999/xlink">
    <title>bgFooterTransitionTile</title>
    <g id="bgFooterTransitionTile" stroke="none" stroke-width="1" fill="none" fill-rule="evenodd">
        <path d="M64,167.473088 L96.5269119,200 L64,232.526912 L31.9990881,200.526224 L-2.84217094e-14,232.526912 L-32.5269119,200 L-2.84217094e-14,167.473088 L31.9990881,199.472224 L64,167.473088 Z M32,136.301515 L61.6984848,166 L32,195.698485 L2.30151519,166 L32,136.301515 Z M64,106.129942 L90.8700577,133 L64,159.870058 L37.1299423,133 L64,106.129942 Z M-2.55795385e-13,106.129942 L26.8700577,133 L-2.55795385e-13,159.870058 L-26.8700577,133 L-2.55795385e-13,106.129942 Z M32,75.9583694 L56.0416306,100 L32,124.041631 L7.95836944,100 L32,75.9583694 Z M64,45.7867966 L85.2132034,67 L64,88.2132034 L42.7867966,67 L64,45.7867966 Z M-1.42108547e-13,45.7867966 L21.2132034,67 L-1.42108547e-13,88.2132034 L-21.2132034,67 L-1.42108547e-13,45.7867966 Z M32,15.6152237 L50.3847763,34 L32,52.3847763 L13.6152237,34 L32,15.6152237 Z" id="Combined-Shape" fill="#000000"></path>
    </g>
</svg>