<?xml version="1.0" encoding="UTF-8"?>
<svg width="45px" height="35px" viewBox="0 0 45 35" version="1.1" xmlns="http://www.w3.org/2000/svg" xmlns:xlink="http://www.w3.org/1999/xlink">
    <title>icons</title>
    <g id="Page-1" stroke="none" stroke-width="1" fill="none" fill-rule="evenodd">
        <g id="icons" transform="translate(-211.000000, -172.000000)" fill="#000000">
            <path d="M229,176 C232.511811,176 235.373151,178.784996 235.495897,182.266866 L235.5,182.5 L235.5,185 L248,185 C249.104569,185 250,185.895431 250,187 L250,200 C250,201.104569 249.104569,202 248,202 L231,202 C229.895431,202 229,201.104569 229,200 L229,187 C229,185.895431 229.895431,185 231,185 L232.5,185 L232.5,182.5 C232.5,180.631437 231.035722,179.104874 229.192035,179.005179 L229,179 L228,179 C226.131437,179 224.604874,180.464278 224.505179,182.307965 L224.5,182.5 L224.5,185 L221.5,185 L221.5,182.5 C221.5,178.988189 224.284996,176.126849 227.766866,176.004103 L228,176 L229,176 Z M239.5,189.5 C238.119288,189.5 237,190.619288 237,192 C237,193.025227 237.617129,193.906316 238.500175,194.292055 L238.500175,194.292055 L238.5,196.5 C238.5,197.052285 238.947715,197.5 239.5,197.5 C240.052285,197.5 240.5,197.052285 240.5,196.5 L240.5,196.5 L240.50083,194.291615 C241.383339,193.905648 242,193.024838 242,192 C242,190.619288 240.880712,189.5 239.5,189.5 Z" id="padlock_unlocked"></path>
        </g>
    </g>
</svg>