<?xml version="1.0" encoding="UTF-8"?>
<svg width="40px" height="40px" viewBox="0 0 40 40" version="1.1" xmlns="http://www.w3.org/2000/svg" xmlns:xlink="http://www.w3.org/1999/xlink">
    <title>iconEyedrop</title>
    <g id="iconEyedrop" stroke="none" stroke-width="1" fill="none" fill-rule="evenodd">
        <g id="Group-4-Copy" transform="translate(5.000000, 3.000000)" stroke="#E76414" stroke-width="3">
            <path d="M12.5,5.5 C13.3284271,4.67157288 14.6715729,4.67157288 15.5,5.5 L18,8 L18,8 L23.1715729,2.82842712 C24.73367,1.26632996 27.26633,1.26632996 28.8284271,2.82842712 L29.1715729,3.17157288 C30.73367,4.73367004 30.73367,7.26632996 29.1715729,8.82842712 L24,14 L24,14 L26.5,16.5 C27.3284271,17.3284271 27.3284271,18.6715729 26.5,19.5 C25.6715729,20.3284271 24.3284271,20.3284271 23.5,19.5 L12.5,8.5 C11.6715729,7.67157288 11.6715729,6.32842712 12.5,5.5 Z" id="Rectangle" fill="#E76414"></path>
            <path d="M3.15316583,23.8468342 L16,11 L16,11 L21,16 L8.15316583,28.8468342 C8.05222572,28.9477743 7.9308443,29.0259334 7.79718249,29.0760566 L2.05992419,31.2275284 C1.54280387,31.4214486 0.966391694,31.159443 0.772471571,30.6423227 C0.687577142,30.4159375 0.687577142,30.166461 0.772471571,29.9400758 L2.92394343,24.2028175 C2.97406661,24.0691557 3.05222572,23.9477743 3.15316583,23.8468342 Z" id="Rectangle-Copy-8"></path>
        </g>
    </g>
</svg>