<?xml version="1.0" encoding="UTF-8"?>
<svg width="40px" height="40px" viewBox="0 0 40 40" version="1.1" xmlns="http://www.w3.org/2000/svg" xmlns:xlink="http://www.w3.org/1999/xlink">
    <title>iconErase</title>
    <g id="iconErase" stroke="none" stroke-width="1" fill="none" fill-rule="evenodd">
        <g id="Group-4" transform="translate(2.000000, 3.000000)">
            <path d="M3.53553391,17.4644661 L19.5857864,1.41421356 C20.366835,0.633164979 21.633165,0.633164979 22.4142136,1.41421356 L33.5857864,12.5857864 C34.366835,13.366835 34.366835,14.633165 33.5857864,15.4142136 L17,32 L17,32 L11,32 L3.53553391,24.5355339 C1.58291245,22.5829124 1.58291245,19.4170876 3.53553391,17.4644661 Z" id="Rectangle" stroke="#E76414" stroke-width="3"></path>
            <path d="M6,15 L20.2928932,0.707106781 C20.6834175,0.316582489 21.3165825,0.316582489 21.7071068,0.707106781 L34.2928932,13.2928932 C34.6834175,13.6834175 34.6834175,14.3165825 34.2928932,14.7071068 L20,29 L20,29 L6,15 Z" id="Combined-Shape" fill="#E76414"></path>
        </g>
    </g>
</svg>