<?xml version="1.0" encoding="UTF-8"?>
<svg width="24px" height="24px" viewBox="0 0 24 24" version="1.1" xmlns="http://www.w3.org/2000/svg" xmlns:xlink="http://www.w3.org/1999/xlink">
    <title>iconNodon</title>
    <g id="iconNodon" stroke="none" stroke-width="1" fill="none" fill-rule="evenodd">
        <path d="M12,1 C14.209139,1 16,2.790861 16,5 L16,6 L18,6 C19.1045695,6 20,6.8954305 20,8 L20,20 C20,21.1045695 19.1045695,22 18,22 L6,22 C4.8954305,22 4,21.1045695 4,20 L4,8 C4,6.8954305 4.8954305,6 6,6 L8,6 L8,5 C8,2.790861 9.790861,1 12,1 Z M17,9 L7,9 L7,19 L17,19 L17,9 Z M13.3333333,3.5 C13.10084,3.5 12.8961432,3.61901126 12.7768405,3.7994363 L12.7768405,3.7994363 L11.2231595,3.7994363 C11.1038568,3.61901126 10.89916,3.5 10.6666667,3.5 C10.2984768,3.5 10,3.79847683 10,4.16666667 C10,4.5348565 10.2984768,4.83333333 10.6666667,4.83333333 C10.9266854,4.83333333 11.1519362,4.68447388 11.2618466,4.46732733 L11.2618466,4.46732733 L12.7381534,4.46732733 C12.8480638,4.68447388 13.0733146,4.83333333 13.3333333,4.83333333 C13.7015232,4.83333333 14,4.5348565 14,4.16666667 C14,3.79847683 13.7015232,3.5 13.3333333,3.5 Z" id="Combined-Shape" fill="#000000"></path>
    </g>
</svg>