<?xml version="1.0" encoding="UTF-8"?>
<svg width="28px" height="28px" viewBox="0 0 28 28" version="1.1" xmlns="http://www.w3.org/2000/svg" xmlns:xlink="http://www.w3.org/1999/xlink">
    <title>iconUndo</title>
    <g id="iconUndo" stroke="none" stroke-width="1" fill="none" fill-rule="evenodd">
        <path d="M0.788854382,7.60557281 L9.78885438,3.10557281 C9.92770982,3.03614509 10.0808229,3 10.236068,3 L10.5,3 C10.7761424,3 11,3.22385763 11,3.5 L11,13.5 C11,13.7761424 10.7761424,14 10.5,14 L10.472136,14 C10.1616458,14 9.85541963,13.9277098 9.57770876,13.7888544 L0.788854382,9.39442719 C0.294875885,9.14743794 0.0946515378,8.5467649 0.341640786,8.0527864 C0.438404488,7.859259 0.59532698,7.70233651 0.788854382,7.60557281 Z" id="Rectangle" fill="#E76414"></path>
        <path d="M5.5,8.5 L18,8.5 C22.1421356,8.5 25.5,11.8578644 25.5,16 C25.5,20.1421356 22.1421356,23.5 18,23.5 L7.5,23.5 L7.5,23.5" id="Path-5" stroke="#E76414" stroke-width="3" stroke-linecap="round" stroke-linejoin="round"></path>
    </g>
</svg>