<?xml version="1.0" encoding="UTF-8"?>
<svg width="24px" height="24px" viewBox="0 0 24 24" version="1.1" xmlns="http://www.w3.org/2000/svg" xmlns:xlink="http://www.w3.org/1999/xlink">
    <title>iconTexture</title>
    <g id="iconTexture" stroke="none" stroke-width="1" fill="none" fill-rule="evenodd">
        <path d="M4,12 L11,12 C11.5522847,12 12,12.4477153 12,13 L12,20 C12,20.5522847 11.5522847,21 11,21 L4,21 C3.44771525,21 3,20.5522847 3,20 L3,13 C3,12.4477153 3.44771525,12 4,12 Z M20,12 L13,12 C12.4477153,12 12,11.5522847 12,11 L12,4 C12,3.44771525 12.4477153,3 13,3 L20,3 C20.5522847,3 21,3.44771525 21,4 L21,11 C21,11.5522847 20.5522847,12 20,12 Z" id="Shape" fill="#000000"></path>
    </g>
</svg>