<?xml version="1.0" encoding="UTF-8"?>
<svg width="40px" height="40px" viewBox="0 0 40 40" version="1.1" xmlns="http://www.w3.org/2000/svg" xmlns:xlink="http://www.w3.org/1999/xlink">
    <title>iconGrabber</title>
    <g id="iconGrabber" stroke="none" stroke-width="1" fill="none" fill-rule="evenodd" stroke-linejoin="round">
        <path d="M11.9183447,32.0947712 C8.40639887,27.798541 6.26695063,25.2669506 5.5,24.5 C4.87377345,23.8737734 4.2475469,23.2475469 3.62132034,22.6213203 C2.44974747,21.4497475 2.44974747,19.5502525 3.62132034,18.3786797 L4,18 C5.38071187,16.6192881 7.61928813,16.6192881 9,18 L12.5,21.5 L12.5,21.5 L12.5,8.5 C12.5,6.84314575 13.8431458,5.5 15.5,5.5 C17.1568542,5.5 18.5,6.84314575 18.5,8.5 L18.5,17.5 L18.5,17.5 L18.5,6.5 C18.5,4.84314575 19.8431458,3.5 21.5,3.5 C23.1568542,3.5 24.5,4.84314575 24.5,6.5 L24.5,17.5 L24.5,17.5 L24.5,8.5 C24.5,6.84314575 25.8431458,5.5 27.5,5.5 C29.1568542,5.5 30.5,6.84314575 30.5,8.5 L30.5,18.5 L30.5,18.5 L30.5,13 C30.5,11.3431458 31.8431458,10 33.5,10 C35.1568542,10 36.5,11.3431458 36.5,13 L36.5,26 C36.5,31.7989899 31.7989899,36.5 26,36.5 L21.2091729,36.5 C17.6081276,36.5000016 14.1974374,34.8828287 11.9183447,32.0947712 Z" id="Rectangle-Copy-9" stroke="#E76414" stroke-width="3"></path>
    </g>
</svg>