<?xml version="1.0" encoding="UTF-8"?>
<svg width="26px" height="26px" viewBox="0 0 26 26" version="1.1" xmlns="http://www.w3.org/2000/svg" xmlns:xlink="http://www.w3.org/1999/xlink">
    <title>iconLockOn</title>
    <g id="iconLockOn" stroke="none" stroke-width="1" fill="none" fill-rule="evenodd">
        <path d="M13.5,0 C17.0118106,0 19.8731506,2.78499621 19.995897,6.26686587 L20,6.5 L20,9 L21.5,9 C22.6045695,9 23.5,9.8954305 23.5,11 L23.5,24 C23.5,25.1045695 22.6045695,26 21.5,26 L4.5,26 C3.3954305,26 2.5,25.1045695 2.5,24 L2.5,11 C2.5,9.8954305 3.3954305,9 4.5,9 L6,9 L6,6.5 C6,2.98818936 8.78499621,0.126849443 12.2668659,0.00410300538 L12.5,0 L13.5,0 Z M13,13.5 C11.6192881,13.5 10.5,14.6192881 10.5,16 C10.5,17.0252272 11.1171291,17.9063162 12.0001748,18.2920545 L12.0001748,18.2920545 L12,20.5 C12,21.0522847 12.4477153,21.5 13,21.5 C13.5522847,21.5 14,21.0522847 14,20.5 L14,20.5 L14.00083,18.2916153 C14.8833391,17.9056476 15.5,17.0248383 15.5,16 C15.5,14.6192881 14.3807119,13.5 13,13.5 Z M13.5,3 L12.5,3 C10.6314366,3 9.10487355,4.4642776 9.00517886,6.3079648 L9,6.5 L9,9 L17,9 L17,6.5 C17,4.6314366 15.5357224,3.10487355 13.6920352,3.00517886 L13.5,3 Z" id="padlock_locked" fill="#000000"></path>
    </g>
</svg>