<?xml version="1.0" encoding="UTF-8"?>
<svg width="33px" height="26px" viewBox="0 0 33 26" version="1.1" xmlns="http://www.w3.org/2000/svg" xmlns:xlink="http://www.w3.org/1999/xlink">
    <title>iconLockOff</title>
    <g id="iconLockOff" stroke="none" stroke-width="1" fill="none" fill-rule="evenodd">
        <path d="M9.5,0 C13.0118106,0 15.8731506,2.78499621 15.995897,6.26686587 L16,6.5 L16,9 L28.5,9 C29.6045695,9 30.5,9.8954305 30.5,11 L30.5,24 C30.5,25.1045695 29.6045695,26 28.5,26 L11.5,26 C10.3954305,26 9.5,25.1045695 9.5,24 L9.5,11 C9.5,9.8954305 10.3954305,9 11.5,9 L13,9 L13,6.5 C13,4.6314366 11.5357224,3.10487355 9.6920352,3.00517886 L9.5,3 L8.5,3 C6.6314366,3 5.10487355,4.4642776 5.00517886,6.3079648 L5,6.5 L5,9 L2,9 L2,6.5 C2,2.98818936 4.78499621,0.126849443 8.26686587,0.00410300538 L8.5,0 L9.5,0 Z M20,13.5 C18.6192881,13.5 17.5,14.6192881 17.5,16 C17.5,17.0252272 18.1171291,17.9063162 19.0001748,18.2920545 L19.0001748,18.2920545 L19,20.5 C19,21.0522847 19.4477153,21.5 20,21.5 C20.5522847,21.5 21,21.0522847 21,20.5 L21,20.5 L21.00083,18.2916153 C21.8833391,17.9056476 22.5,17.0248383 22.5,16 C22.5,14.6192881 21.3807119,13.5 20,13.5 Z" id="padlock_unlocked" fill="#000000"></path>
    </g>
</svg>