<?xml version="1.0" encoding="UTF-8"?>
<svg width="26px" height="26px" viewBox="0 0 26 26" version="1.1" xmlns="http://www.w3.org/2000/svg" xmlns:xlink="http://www.w3.org/1999/xlink">
    <title>iconFavorite</title>
    <g id="iconFavorite" stroke="none" stroke-width="1" fill="none" fill-rule="evenodd">
        <path d="M13,19.4775703 L7.16050946,22.5647132 C6.67225648,22.8228361 6.06719922,22.6362789 5.80907624,22.1480259 C5.70555502,21.9522102 5.66997489,21.7275661 5.70791903,21.5093444 L6.83946453,15.0016793 L6.83946453,15.0016793 L2.0989154,10.4019734 C1.70254739,10.0173816 1.69300088,9.38428859 2.07759267,8.98792058 C2.2318347,8.82895565 2.43448906,8.7256981 2.65375557,8.69435092 L9.19257969,7.75953553 L9.19257969,7.75953553 L12.1022497,1.82961808 C12.3455338,1.3338043 12.944691,1.12908853 13.4405048,1.37237261 C13.6393528,1.46994263 13.8001802,1.63077004 13.8977503,1.82961808 L16.8074203,7.75953553 L16.8074203,7.75953553 L23.3462444,8.69435092 C23.8929703,8.77251294 24.2728163,9.27908465 24.1946543,9.82581048 C24.1633071,10.045077 24.0600495,10.2477314 23.9010846,10.4019734 L19.1605355,15.0016793 L19.1605355,15.0016793 L20.292081,21.5093444 C20.386692,22.053465 20.0222926,22.5712593 19.478172,22.6658704 C19.2599504,22.7038145 19.0353063,22.6682344 18.8394905,22.5647132 L13,19.4775703 L13,19.4775703 Z" id="star" fill="#000000"></path>
    </g>
</svg>