<?xml version="1.0" encoding="UTF-8"?>
<svg width="40px" height="40px" viewBox="0 0 40 40" version="1.1" xmlns="http://www.w3.org/2000/svg" xmlns:xlink="http://www.w3.org/1999/xlink">
    <title>iconPen</title>
    <g id="iconPen" stroke="none" stroke-width="1" fill="none" fill-rule="evenodd">
        <g id="Group-4" transform="translate(5.000000, 2.414214)">
            <path d="M2.23148588,19.3543006 L20.2928932,1.29289322 C20.6834175,0.902368927 21.3165825,0.902368927 21.7071068,1.29289322 L31.2928932,10.8786797 C31.6834175,11.2692039 31.6834175,11.9023689 31.2928932,12.2928932 L13.2314859,30.3543006 C13.081089,30.5046975 12.8866564,30.6032239 12.6764363,30.6355655 L1.34777959,32.3784357 C0.801916972,32.4624146 0.29132957,32.0879838 0.207350706,31.5421212 C0.191846303,31.4413426 0.191846303,31.3387855 0.207350706,31.2380068 L1.95022097,19.9093502 C1.98256252,19.6991301 2.08108899,19.5046975 2.23148588,19.3543006 Z" id="Rectangle" stroke="#E76414" stroke-width="3"></path>
            <path d="M0,24.5857864 L7,31.5857864 L0,31.5857864 L0,24.5857864 Z M21.7071068,0.292893219 L32.2928932,10.8786797 C32.6834175,11.2692039 32.6834175,11.9023689 32.2928932,12.2928932 L15,29.5857864 L3,17.5857864 L20.2928932,0.292893219 C20.6834175,-0.0976310729 21.3165825,-0.0976310729 21.7071068,0.292893219 Z M26.4644661,11.1213203 C26.0739418,10.7307961 25.4407768,10.7307961 25.0502525,11.1213203 L25.0502525,11.1213203 L14.2928932,21.8786797 L14.2097046,21.972887 C13.9046797,22.3651782 13.9324093,22.9324093 14.2928932,23.2928932 C14.6834175,23.6834175 15.3165825,23.6834175 15.7071068,23.2928932 L15.7071068,23.2928932 L26.4644661,12.5355339 L26.5476547,12.4413266 C26.8526796,12.0490354 26.8249501,11.4818043 26.4644661,11.1213203 Z M21.4644661,6.12132034 C21.0739418,5.73079605 20.4407768,5.73079605 20.0502525,6.12132034 L20.0502525,6.12132034 L9.29289322,16.8786797 L9.20970461,16.972887 C8.90467972,17.3651782 8.93240926,17.9324093 9.29289322,18.2928932 C9.68341751,18.6834175 10.3165825,18.6834175 10.7071068,18.2928932 L10.7071068,18.2928932 L21.4644661,7.53553391 L21.5476547,7.44132657 C21.8526796,7.04903536 21.8249501,6.48180431 21.4644661,6.12132034 Z" id="Combined-Shape" fill="#E76414"></path>
        </g>
    </g>
</svg>