<?xml version="1.0" encoding="UTF-8"?>
<svg width="1300px" height="400px" viewBox="0 0 1300 400" version="1.1" xmlns="http://www.w3.org/2000/svg" xmlns:xlink="http://www.w3.org/1999/xlink">
    <title>logo</title>
    <defs>
        <linearGradient x1="50%" y1="0%" x2="50%" y2="100%" id="linearGradient-1">
            <stop stop-color="#8FD4FF" offset="0%"></stop>
            <stop stop-color="#C3FFFF" offset="100%"></stop>
        </linearGradient>
        <path d="M1112,100 C1124.57552,100 1134.79381,110.092531 1134.99692,122.619653 L1135,123 L1135,253 C1135,265.575524 1145.09253,275.79381 1157.61965,275.996919 L1158,276 C1170.70255,276 1181,286.297451 1181,299 C1181,311.702549 1170.70255,322 1158,322 C1157.8723,322 1157.74485,321.998959 1157.61765,321.996886 L1158,322 C1120.27343,322 1089.61857,291.722406 1089.00924,254.141041 L1089,253 L1089,123 L1089.00308,122.619653 C1089.20619,110.092531 1099.42448,100 1112,100 Z M765,149 C812.496488,149 851,187.503512 851,235 C851,282.496488 812.496488,321 765,321 C717.503512,321 679,282.496488 679,235 C679,187.503512 717.503512,149 765,149 Z M969,149 C1016.49649,149 1055,187.503512 1055,235 C1055,282.496488 1016.49649,321 969,321 C921.503512,321 883,282.496488 883,235 C883,187.503512 921.503512,149 969,149 Z M678,99 C690.702549,99 701,109.297451 701,122 C701,134.575524 690.907469,144.79381 678.380347,144.996919 L678,145 L637,145 L637,298 C637,310.575524 626.907469,320.79381 614.380347,320.996919 L614,321 C601.424476,321 591.20619,310.907469 591.003081,298.380347 L591,298 L591,145 L550,145 L549.619653,144.996919 C537.092531,144.79381 527,134.575524 527,122 C527,109.424476 537.092531,99.2061895 549.619653,99.0030813 L550,99 L678,99 Z M462,163 C474.575524,163 484.79381,173.092531 484.996919,185.619653 L485,186 L485,298 C485,310.702549 474.702549,321 462,321 C449.424476,321 439.20619,310.907469 439.003081,298.380347 L439,298 L439,186 L439.003081,185.619653 C439.20619,173.092531 449.424476,163 462,163 Z M378,163 C390.575524,163 400.79381,173.092531 400.996919,185.619653 L401,186 L401,298 C401,310.702549 390.702549,321 378,321 C365.424476,321 355.20619,310.907469 355.003081,298.380347 L355,298 L355,186 L355.003081,185.619653 C355.20619,173.092531 365.424476,163 378,163 Z M248,103 C285.726571,103 316.381431,133.277594 316.990756,170.858959 L317,172 L317,298 C317,310.702549 306.702549,321 294,321 C281.424476,321 271.20619,310.907469 271.003081,298.380347 L271,298 L271.001354,237.07329 L271,237.073 L271,172 L270.996919,171.619653 C270.79381,159.092531 260.575524,149 248,149 C235.550231,149 225.410791,158.89169 225.012171,171.244577 L225.003081,171.619653 L225,172 L225.000645,237.073997 C225.000313,237.073879 224.999981,237.073762 224.999648,237.073644 L225,298 C225,310.702549 214.702549,321 202,321 C189.424476,321 179.20619,310.907469 179.003081,298.380347 L179,298 L179.001354,237.07329 L179,237.073 L179,172 L178.996919,171.619653 C178.79381,159.092531 168.575524,149 156,149 C143.550231,149 133.410791,158.89169 133.012171,171.244577 L133.003081,171.619653 L133,172 L133.000645,237.073997 C133.000313,237.073879 132.999981,237.073762 132.999648,237.073644 L133,298 C133,310.702549 122.702549,321 110,321 C97.4244762,321 87.2061895,310.907469 87.0030813,298.380347 L87,298 L87,172 L87.009244,170.858959 C87.6185686,133.277594 118.273429,103 156,103 C173.673147,103 189.794416,109.64438 202.002062,120.571396 C214.206466,109.644017 230.327337,103 248,103 Z M765,195 C742.90861,195 725,212.90861 725,235 C725,257.09139 742.90861,275 765,275 C787.09139,275 805,257.09139 805,235 C805,212.90861 787.09139,195 765,195 Z M969,195 C946.90861,195 929,212.90861 929,235 C929,257.09139 946.90861,275 969,275 C991.09139,275 1009,257.09139 1009,235 C1009,212.90861 991.09139,195 969,195 Z M462,99 C474.702549,99 485,109.297451 485,122 C485,134.702549 474.702549,145 462,145 C449.297451,145 439,134.702549 439,122 C439,109.297451 449.297451,99 462,99 Z M378,99 C390.702549,99 401,109.297451 401,122 C401,134.702549 390.702549,145 378,145 C365.297451,145 355,134.702549 355,122 C355,109.297451 365.297451,99 378,99 Z" id="path-2"></path>
        <path d="M1025,1 C1037.57552,1 1047.79381,11.0925315 1047.99692,23.6196529 L1048,24 L1048,154 C1048,166.575524 1058.09253,176.79381 1070.61965,176.996919 L1071,177 C1083.70255,177 1094,187.297451 1094,200 C1094,212.702549 1083.70255,223 1071,223 C1070.8723,223 1070.74485,222.998959 1070.61765,222.996886 L1071,223 C1033.27343,223 1002.61857,192.722406 1002.00924,155.141041 L1002,154 L1002,24 L1002.00308,23.6196529 C1002.20619,11.0925315 1012.42448,1 1025,1 Z M678,50 C725.496488,50 764,88.5035115 764,136 C764,183.496488 725.496488,222 678,222 C630.503512,222 592,183.496488 592,136 C592,88.5035115 630.503512,50 678,50 Z M882,50 C929.496488,50 968,88.5035115 968,136 C968,183.496488 929.496488,222 882,222 C834.503512,222 796,183.496488 796,136 C796,88.5035115 834.503512,50 882,50 Z M591,0 C603.702549,0 614,10.2974508 614,23 C614,35.5755238 603.907469,45.7938105 591.380347,45.9969187 L591,46 L550,46 L550,199 C550,211.575524 539.907469,221.79381 527.380347,221.996919 L527,222 C514.424476,222 504.20619,211.907469 504.003081,199.380347 L504,199 L504,46 L463,46 L462.619653,45.9969187 C450.092531,45.7938105 440,35.5755238 440,23 C440,10.4244762 450.092531,0.206189525 462.619653,0.00308134287 L463,0 L591,0 Z M375,64 C387.575524,64 397.79381,74.0925315 397.996919,86.6196529 L398,87 L398,199 C398,211.702549 387.702549,222 375,222 C362.424476,222 352.20619,211.907469 352.003081,199.380347 L352,199 L352,87 L352.003081,86.6196529 C352.20619,74.0925315 362.424476,64 375,64 Z M291,64 C303.575524,64 313.79381,74.0925315 313.996919,86.6196529 L314,87 L314,199 C314,211.702549 303.702549,222 291,222 C278.424476,222 268.20619,211.907469 268.003081,199.380347 L268,199 L268,87 L268.003081,86.6196529 C268.20619,74.0925315 278.424476,64 291,64 Z M161,4 C198.726571,4 229.381431,34.2775945 229.990756,71.8589588 L230,73 L230,199 C230,211.702549 219.702549,222 207,222 C194.424476,222 184.20619,211.907469 184.003081,199.380347 L184,199 L184.001354,138.07329 L184,138.073 L184,73 L183.996919,72.6196529 C183.79381,60.0925315 173.575524,50 161,50 C148.550231,50 138.410791,59.8916901 138.012171,72.2445773 L138.003081,72.6196529 L138,73 L138.000645,138.073997 C138.000313,138.073879 137.999981,138.073762 137.999648,138.073644 L138,199 C138,211.702549 127.702549,222 115,222 C102.424476,222 92.2061895,211.907469 92.0030813,199.380347 L92,199 L92.0013536,138.07329 L92,138.073 L92,73 L91.9969187,72.6196529 C91.7938105,60.0925315 81.5755238,50 69,50 C56.5502315,50 46.410791,59.8916901 46.0121715,72.2445773 L46.0030813,72.6196529 L46,73 L46.0006453,138.073997 C46.0003129,138.073879 45.9999806,138.073762 45.9996482,138.073644 L46,199 C46,211.702549 35.7025492,222 23,222 C10.4244762,222 0.206189525,211.907469 0.00308134287,199.380347 L0,199 L0,73 L0.00924402862,71.8589588 C0.618568575,34.2775945 31.2734287,4 69,4 C86.673147,4 102.794416,10.6443802 115.002062,21.5713959 C127.206466,10.6440166 143.327337,4 161,4 Z M678,96 C655.90861,96 638,113.90861 638,136 C638,158.09139 655.90861,176 678,176 C700.09139,176 718,158.09139 718,136 C718,113.90861 700.09139,96 678,96 Z M882,96 C859.90861,96 842,113.90861 842,136 C842,158.09139 859.90861,176 882,176 C904.09139,176 922,158.09139 922,136 C922,113.90861 904.09139,96 882,96 Z M375,0 C387.702549,0 398,10.2974508 398,23 C398,35.7025492 387.702549,46 375,46 C362.297451,46 352,35.7025492 352,23 C352,10.2974508 362.297451,0 375,0 Z M291,0 C303.702549,0 314,10.2974508 314,23 C314,35.7025492 303.702549,46 291,46 C278.297451,46 268,35.7025492 268,23 C268,10.2974508 278.297451,0 291,0 Z" id="path-4"></path>
        <linearGradient x1="50%" y1="-21.6617321%" x2="50%" y2="100%" id="linearGradient-6">
            <stop stop-color="#93D7FF" offset="0%"></stop>
            <stop stop-color="#E4BDFF" offset="100%"></stop>
        </linearGradient>
    </defs>
    <g id="logo" stroke="none" stroke-width="1" fill="none" fill-rule="evenodd">
        <rect fill="#FFFFFF" x="0" y="0" width="1300" height="400"></rect>
        <path d="M766,140.5 C793.200024,140.5 817.825024,151.524988 835.650018,169.349982 C853.475012,187.174976 864.5,211.799976 864.5,239 C864.5,266.200024 853.475012,290.825024 835.650018,308.650018 C817.825024,326.475012 793.200024,337.5 766,337.5 C738.799976,337.5 714.174976,326.475012 696.349982,308.650018 C678.524988,290.825024 667.5,266.200024 667.5,239 C667.5,211.799976 678.524988,187.174976 696.349982,169.349982 C714.174976,151.524988 738.799976,140.5 766,140.5 Z M765,211.5 C757.406085,211.5 750.531085,214.578042 745.554564,219.554564 C740.578042,224.531085 737.5,231.406085 737.5,239 C737.5,246.593915 740.578042,253.468915 745.554564,258.445436 C750.531085,263.421958 757.406085,266.5 765,266.5 C772.593915,266.5 779.468915,263.421958 784.445436,258.445436 C789.421958,253.468915 792.5,246.593915 792.5,239 C792.5,231.406085 789.421958,224.531085 784.445436,219.554564 C779.468915,214.578042 772.593915,211.5 765,211.5 Z M967.999998,140.5 C995.200022,140.5 1019.82502,151.524988 1037.65002,169.349982 C1055.47501,187.174976 1066.5,211.799976 1066.5,239 C1066.5,266.200024 1055.47501,290.825024 1037.65002,308.650018 C1019.82502,326.475012 995.200022,337.5 967.999998,337.5 C940.799974,337.5 916.174974,326.475012 898.34998,308.650018 C880.524986,290.825024 869.499998,266.200024 869.499998,239 C869.499998,211.799976 880.524986,187.174976 898.34998,169.349982 C916.174974,151.524988 940.799974,140.5 967.999998,140.5 Z M968.999998,211.5 C961.406082,211.5 954.531082,214.578042 949.554561,219.554564 C944.57804,224.531085 941.499998,231.406085 941.499998,239 C941.499998,246.593915 944.57804,253.468915 949.554561,258.445436 C954.531082,263.421958 961.406082,266.5 968.999998,266.5 C976.593913,266.5 983.468913,263.421958 988.445434,258.445436 C993.421955,253.468915 996.499998,246.593915 996.499998,239 C996.499998,231.406085 993.421955,224.531085 988.445434,219.554564 C983.468913,214.578042 976.593913,211.5 968.999998,211.5 Z M377.999996,154.5 C387.697049,154.5 396.485889,158.388141 402.892986,164.690129 C409.21223,170.905705 413.212179,179.469984 413.485169,188.967157 L413.485169,188.967157 L413.499996,302 C413.499996,311.803055 409.526527,320.678054 403.102291,327.102291 C396.678055,333.526527 387.803055,337.5 377.999996,337.5 C368.302952,337.5 359.514111,333.61186 353.107014,327.309871 C346.78777,321.094295 342.787821,312.530016 342.514831,303.032843 L342.514831,303.032843 L342.499992,189.910882 C342.629074,180.006553 346.643715,171.199756 352.991707,164.851764 C359.417828,158.425643 368.249864,154.5 377.999996,154.5 Z M460.999996,154.5 C470.697049,154.5 479.485889,158.388141 485.892986,164.690129 C492.21223,170.905705 496.212179,179.469984 496.485169,188.967157 L496.485169,188.967157 L496.499996,302 C496.499996,311.803055 492.526527,320.678054 486.102291,327.102291 C479.678055,333.526527 470.803055,337.5 460.999996,337.5 C451.302952,337.5 442.514111,333.61186 436.107014,327.309871 C429.78777,321.094295 425.787821,312.530016 425.514831,303.032843 L425.514831,303.032843 L425.499992,189.910882 C425.629074,180.006553 429.643715,171.199756 435.991707,164.851764 C442.417828,158.425643 451.249864,154.5 460.999996,154.5 Z M155.999998,94.5 C173.068868,94.5 188.91133,99.748689 202.00802,108.71035 C215.097078,99.7459144 230.9356,94.5 247.999998,94.5 C270.261911,94.5 290.438993,103.425853 305.14809,117.893647 C319.557007,132.066185 328.716537,151.557355 329.45217,173.184979 L329.45217,173.184979 L329.473957,173.920486 L329.489786,174.688561 L329.499998,175.949372 L329.499998,302 C329.499998,311.803054 325.526527,320.678054 319.102291,327.102291 C312.678054,333.526527 303.803055,337.5 293.999998,337.5 C284.302952,337.5 275.514111,333.61186 269.107014,327.309871 C262.930379,321.234564 258.969902,312.915312 258.539009,303.674542 L258.539009,303.674542 L258.514848,303.054001 L258.501354,241.073551 L258.499999,176.117424 C258.432045,173.134288 257.25705,170.45586 255.330623,168.529433 C253.446949,166.645759 250.856668,165.5 247.999998,165.5 C245.163443,165.5 242.589367,166.624508 240.700054,168.452736 C238.992138,170.10543 237.839813,172.331968 237.564248,174.823991 L237.564248,174.823991 L237.500645,241.074129 L237.499998,302 C237.499998,311.803054 233.526527,320.678054 227.102291,327.102291 C220.678054,333.526527 211.803055,337.5 201.999998,337.5 C192.302952,337.5 183.514111,333.61186 177.107014,327.309871 C170.930379,321.234564 166.969902,312.915312 166.539009,303.674542 L166.539009,303.674542 L166.514848,303.054001 L166.501354,241.073551 L166.499999,176.117424 C166.432045,173.134288 165.25705,170.45586 163.330623,168.529433 C161.446949,166.645759 158.856668,165.5 155.999998,165.5 C153.163443,165.5 150.589367,166.624508 148.700054,168.452736 C146.992138,170.10543 145.839813,172.331968 145.564248,174.823991 L145.564248,174.823991 L145.500645,241.074129 L145.499998,302 C145.499998,311.803054 141.526527,320.678054 135.102291,327.102291 C128.678054,333.526527 119.803055,337.5 109.999998,337.5 C100.302952,337.5 91.5141108,333.61186 85.1070137,327.309871 C78.9303247,321.234511 74.9698323,312.915167 74.5389973,303.6743 L74.5389973,303.6743 L74.5148321,303.053542 L74.4999956,175.949912 L74.5100481,174.709074 C74.8564115,152.47359 84.1053786,132.398261 98.8519103,117.893647 C113.561008,103.425853 133.73809,94.5 155.999998,94.5 Z M1112,90.5 C1122.19714,90.6745515 1130.66728,94.5665531 1136.89299,100.690129 C1143.06968,106.765491 1147.03017,115.084839 1147.461,124.32571 L1147.461,124.32571 L1147.48517,124.946476 L1147.5,256 C1147.5,258.867813 1148.64957,261.467214 1150.51339,263.362117 C1152.36453,265.244128 1154.91971,266.432808 1157.75494,266.497183 C1167.68502,266.534419 1176.53642,270.483499 1182.94148,276.785207 C1189.48947,283.227535 1193.5,292.144871 1193.5,302 C1193.5,311.803054 1189.52653,320.678054 1183.10229,327.102291 C1176.92591,333.278672 1168.48412,337.188498 1159.13103,337.482255 L1159.13103,337.482255 L1158.54151,337.496293 L1156.74284,337.490471 C1134.73914,337.156683 1114.84881,328.104829 1100.37558,313.633986 C1086.24162,299.502361 1077.27556,280.203865 1076.54786,258.815838 L1076.54786,258.815838 L1076.52606,258.080023 L1076.51021,257.311458 L1076.5,256.050633 L1076.5,125.910242 C1076.62925,116.006174 1080.64385,107.19962 1086.99171,100.851764 C1093.41783,94.425643 1102.24986,90.5 1112,90.5 Z M679,90.5 C688.803054,90.5 697.678054,94.4734728 704.102291,100.897709 C710.526527,107.321946 714.5,116.196946 714.5,126 C714.5,135.697049 710.61186,144.485889 704.309871,150.892986 C698.234672,157.069511 689.915608,161.029957 680.675036,161.460968 L680.675036,161.460968 L680.054846,161.485124 L650.5,161.496447 L650.5,302 C650.5,311.697049 646.61186,320.485889 640.309871,326.892986 C633.996392,333.311766 625.259723,337.338381 615.582993,337.495282 C605.484298,337.499501 596.68005,333.623218 590.270418,327.422155 C583.968051,321.324867 579.966619,312.955849 579.538098,303.655023 L579.538098,303.655023 L579.514545,303.043233 L579.5009,161.5 L550.910242,161.5 C541.006174,161.370753 532.19962,157.356149 525.851764,151.008293 C519.425643,144.582172 515.5,135.750137 515.5,126 C515.5,116.302951 519.38814,107.514111 525.690129,101.107014 C531.76549,94.9303234 540.084836,90.9698306 549.325706,90.538997 L549.325706,90.538997 L549.946468,90.5148318 Z M378,89.5 C387.803054,89.5 396.678054,93.4734728 403.102291,99.8977093 C409.526527,106.321946 413.5,115.196946 413.5,125 C413.5,134.803054 409.526527,143.678054 403.102291,150.102291 C396.678054,156.526527 387.803054,160.5 378,160.5 C368.196946,160.5 359.321946,156.526527 352.897709,150.102291 C346.473473,143.678054 342.5,134.803054 342.5,125 C342.5,115.196946 346.473473,106.321946 352.897709,99.8977093 C359.321946,93.4734728 368.196946,89.5 378,89.5 L378,89.5 Z M461,89.5 C470.803054,89.5 479.678054,93.4734728 486.102291,99.8977093 C492.526527,106.321946 496.5,115.196946 496.5,125 C496.5,134.803054 492.526527,143.678054 486.102291,150.102291 C479.678054,156.526527 470.803054,160.5 461,160.5 C451.196946,160.5 442.321946,156.526527 435.897709,150.102291 C429.473473,143.678054 425.5,134.803054 425.5,125 C425.5,115.196946 429.473473,106.321946 435.897709,99.8977093 C442.321946,93.4734728 451.196946,89.5 461,89.5 L461,89.5 Z" id="outline" stroke="#000000" stroke-width="9"></path>
        <mask id="mask-3" fill="white">
            <use xlink:href="#path-2"></use>
        </mask>
        <g id="mask-copy">
            <use fill="url(#linearGradient-1)" fill-rule="evenodd" xlink:href="#path-2"></use>
            <path stroke="#000000" stroke-width="9" d="M1112,95.5 C1119.51169,95.5 1126.31991,98.5117987 1131.28311,103.393572 C1136.26342,108.292183 1139.38534,115.073882 1139.49692,122.584716 L1139.49692,122.584716 L1139.5,253 C1139.5,258.053169 1141.52591,262.63319 1144.80995,265.971995 C1148.09224,269.309031 1152.63112,271.406785 1157.66053,271.496955 C1165.41151,271.509218 1172.33109,274.568826 1177.33083,279.487883 C1182.39789,284.473189 1185.5,291.374132 1185.5,299 C1185.5,306.593915 1182.42196,313.468915 1177.44544,318.445436 C1172.46892,323.421958 1165.59392,326.5 1158,326.5 C1137.92344,326.5 1119.72698,318.450489 1106.46179,305.40291 C1093.16969,292.328872 1084.82951,274.236283 1084.50954,254.195462 L1084.50954,254.195462 L1084.5,253.018228 L1084.5,122.965547 C1084.613,115.280881 1087.71784,108.439343 1092.64856,103.508618 C1097.6211,98.5360802 1104.45577,95.5 1112,95.5 Z M765,144.5 C789.990885,144.5 812.615885,154.629558 828.993164,171.006836 C845.370442,187.384115 855.5,210.009115 855.5,235 C855.5,259.990885 845.370442,282.615885 828.993164,298.993164 C812.615885,315.370442 789.990885,325.5 765,325.5 C740.009115,325.5 717.384115,315.370442 701.006836,298.993164 C684.629558,282.615885 674.5,259.990885 674.5,235 C674.5,210.009115 684.629558,187.384115 701.006836,171.006836 C717.384115,154.629558 740.009115,144.5 765,144.5 Z M765,199.5 C755.196946,199.5 746.321946,203.473473 739.897709,209.897709 C733.473473,216.321946 729.5,225.196946 729.5,235 C729.5,244.803054 733.473473,253.678054 739.897709,260.102291 C746.321946,266.526527 755.196946,270.5 765,270.5 C774.803054,270.5 783.678054,266.526527 790.102291,260.102291 C796.526527,253.678054 800.5,244.803054 800.5,235 C800.5,225.196946 796.526527,216.321946 790.102291,209.897709 C783.678054,203.473473 774.803054,199.5 765,199.5 Z M969,144.5 C993.990885,144.5 1016.61588,154.629558 1032.99316,171.006836 C1049.37044,187.384115 1059.5,210.009115 1059.5,235 C1059.5,259.990885 1049.37044,282.615885 1032.99316,298.993164 C1016.61588,315.370442 993.990885,325.5 969,325.5 C944.009115,325.5 921.384115,315.370442 905.006836,298.993164 C888.629558,282.615885 878.5,259.990885 878.5,235 C878.5,210.009115 888.629558,187.384115 905.006836,171.006836 C921.384115,154.629558 944.009115,144.5 969,144.5 Z M969,199.5 C959.196946,199.5 950.321946,203.473473 943.897709,209.897709 C937.473473,216.321946 933.5,225.196946 933.5,235 C933.5,244.803054 937.473473,253.678054 943.897709,260.102291 C950.321946,266.526527 959.196946,270.5 969,270.5 C978.803054,270.5 987.678054,266.526527 994.102291,260.102291 C1000.52653,253.678054 1004.5,244.803054 1004.5,235 C1004.5,225.196946 1000.52653,216.321946 994.102291,209.897709 C987.678054,203.473473 978.803054,199.5 969,199.5 Z M678,94.5 C685.593915,94.5 692.468915,97.5780423 697.445436,102.554564 C702.421958,107.531085 705.5,114.406085 705.5,122 C705.5,129.511693 702.488201,136.319913 697.606428,141.283108 C692.707843,146.263395 685.92619,149.385304 678.415404,149.496916 L678.415404,149.496916 L641.5,149.499665 L641.5,298 C641.5,305.511693 638.488201,312.319913 633.606428,317.283108 C628.716083,322.255018 621.948999,325.374796 614.453298,325.496327 C606.696341,325.498746 599.827883,322.504924 594.832952,317.672528 C589.761472,312.766073 586.615147,305.958359 586.503082,298.415277 L586.503082,298.415277 L586.50009,149.5 L549.965547,149.5 C542.280881,149.386997 535.439343,146.282164 530.508618,141.351439 C525.53608,136.378901 522.5,129.544227 522.5,122 C522.5,114.488307 525.511799,107.680087 530.393572,102.716892 C535.292183,97.7365789 542.073881,94.6146636 549.584715,94.5030822 L549.584715,94.5030822 Z M462,158.5 C469.511693,158.5 476.319913,161.511799 481.283108,166.393572 C486.263419,171.292181 489.385334,178.073876 489.496918,185.584707 L489.496918,185.584707 L489.5,298 C489.5,305.593915 486.421958,312.468915 481.445436,317.445436 C476.468915,322.421958 469.593915,325.5 462,325.5 C454.488307,325.5 447.680087,322.488201 442.716892,317.606428 C437.736581,312.707819 434.614666,305.926124 434.503082,298.415293 L434.503082,298.415293 L434.499999,185.965611 C434.612985,178.280919 437.717822,171.439357 442.648561,166.508618 C447.621099,161.53608 454.455773,158.5 462,158.5 Z M378,158.5 C385.511693,158.5 392.319913,161.511799 397.283108,166.393572 C402.263419,171.292181 405.385334,178.073876 405.496918,185.584707 L405.496918,185.584707 L405.5,298 C405.5,305.593915 402.421958,312.468915 397.445436,317.445436 C392.468915,322.421958 385.593915,325.5 378,325.5 C370.488307,325.5 363.680087,322.488201 358.716892,317.606428 C353.736581,312.707819 350.614666,305.926124 350.503082,298.415293 L350.503082,298.415293 L350.499999,185.965611 C350.612985,178.280919 353.717822,171.439357 358.648561,166.508618 C363.621099,161.53608 370.455773,158.5 378,158.5 Z M248,98.5 C268.076555,98.5 286.273016,106.549511 299.538212,119.59709 C312.830307,132.671128 321.170494,150.763717 321.490463,170.804538 L321.490463,170.804538 L321.5,171.981772 L321.5,298 C321.5,305.593915 318.421958,312.468915 313.445436,317.445436 C308.468915,322.421958 301.593915,325.5 294,325.5 C286.488307,325.5 279.680087,322.488201 274.716892,317.606428 C269.736581,312.707819 266.614666,305.926125 266.503082,298.415295 L266.503082,298.415295 L266.501354,237.073384 L266.500001,172.037788 C266.408307,166.845682 264.326009,162.211111 260.987478,158.872579 C257.650221,155.535322 253.062579,153.5 248,153.5 C243.001556,153.5 238.466026,155.48222 235.136903,158.703705 C231.812461,161.92066 229.689885,166.373007 229.512158,171.321436 L229.512158,171.321436 L229.500645,237.074044 L229.5,298 C229.5,305.593915 226.421958,312.468915 221.445436,317.445436 C216.468915,322.421958 209.593915,325.5 202,325.5 C194.488307,325.5 187.680087,322.488201 182.716892,317.606428 C177.736581,312.707819 174.614666,305.926125 174.503082,298.415295 L174.503082,298.415295 L174.501354,237.073384 L174.500001,172.037788 C174.408307,166.845682 172.326009,162.211111 168.987478,158.872579 C165.650221,155.535322 161.062579,153.5 156,153.5 C151.001556,153.5 146.466026,155.48222 143.136903,158.703705 C139.812461,161.92066 137.689885,166.373007 137.512158,171.321436 L137.512158,171.321436 L137.500645,237.074044 L137.5,298 C137.5,305.593915 134.421958,312.468915 129.445436,317.445436 C124.468915,322.421958 117.593915,325.5 110,325.5 C102.488307,325.5 95.6800868,322.488201 90.7168918,317.606428 C85.7365791,312.707817 82.6146638,305.926119 82.5030822,298.415286 L82.5030822,298.415286 L82.4999996,171.981827 L82.5095372,170.804538 C82.8295056,150.763717 91.1696928,132.671128 104.461788,119.59709 C117.726984,106.549511 135.923445,98.5 156,98.5 C173.411829,98.5 189.409337,104.554781 202.002822,114.671382 C214.593121,104.553876 230.589488,98.5 248,98.5 L248,98.5 Z M462,94.5 C469.593915,94.5 476.468915,97.5780423 481.445436,102.554564 C486.421958,107.531085 489.5,114.406085 489.5,122 C489.5,129.593915 486.421958,136.468915 481.445436,141.445436 C476.468915,146.421958 469.593915,149.5 462,149.5 C454.406085,149.5 447.531085,146.421958 442.554564,141.445436 C437.578042,136.468915 434.5,129.593915 434.5,122 C434.5,114.406085 437.578042,107.531085 442.554564,102.554564 C447.531085,97.5780423 454.406085,94.5 462,94.5 Z M378,94.5 C385.593915,94.5 392.468915,97.5780423 397.445436,102.554564 C402.421958,107.531085 405.5,114.406085 405.5,122 C405.5,129.593915 402.421958,136.468915 397.445436,141.445436 C392.468915,146.421958 385.593915,149.5 378,149.5 C370.406085,149.5 363.531085,146.421958 358.554564,141.445436 C353.578042,136.468915 350.5,129.593915 350.5,122 C350.5,114.406085 353.578042,107.531085 358.554564,102.554564 C363.531085,97.5780423 370.406085,94.5 378,94.5 L378,94.5 Z"></path>
            <path stroke="#FFFFFF" stroke-width="4" d="M1112,102 C1117.73609,102 1122.93506,104.299771 1126.72508,108.02762 C1130.51791,111.758226 1132.89999,116.918939 1132.99692,122.636251 L1132.99692,122.636251 L1133,253 C1133,259.82877 1135.73794,266.018046 1140.1759,270.530021 C1144.62151,275.049784 1150.7731,277.886175 1157.58723,277.996656 C1163.5852,277.998324 1168.92183,280.333101 1172.77217,284.121308 C1176.63599,287.922783 1179,293.185406 1179,299 C1179,304.79899 1176.64949,310.04899 1172.84924,313.849242 C1169.04899,317.649495 1163.79899,320 1158,320 C1139.69905,320 1123.11184,312.662516 1111.01981,300.768862 C1098.90918,288.856901 1091.3073,272.374819 1091.00911,254.11667 L1091.00911,254.11667 L1091,252.991899 L1091,123.016309 C1091.09803,117.132423 1093.46424,111.885323 1097.24476,108.104812 C1101.03626,104.31331 1106.24807,102 1112,102 Z M765,151 C788.195959,151 809.195959,160.40202 824.39697,175.60303 C839.59798,190.804041 849,211.804041 849,235 C849,258.195959 839.59798,279.195959 824.39697,294.39697 C809.195959,309.59798 788.195959,319 765,319 C741.804041,319 720.804041,309.59798 705.60303,294.39697 C690.40202,279.195959 681,258.195959 681,235 C681,211.804041 690.40202,190.804041 705.60303,175.60303 C720.804041,160.40202 741.804041,151 765,151 Z M765,193 C753.40202,193 742.90202,197.70101 735.301515,205.301515 C727.70101,212.90202 723,223.40202 723,235 C723,246.59798 727.70101,257.09798 735.301515,264.698485 C742.90202,272.29899 753.40202,277 765,277 C776.59798,277 787.09798,272.29899 794.698485,264.698485 C802.29899,257.09798 807,246.59798 807,235 C807,223.40202 802.29899,212.90202 794.698485,205.301515 C787.09798,197.70101 776.59798,193 765,193 Z M969,151 C992.195959,151 1013.19596,160.40202 1028.39697,175.60303 C1043.59798,190.804041 1053,211.804041 1053,235 C1053,258.195959 1043.59798,279.195959 1028.39697,294.39697 C1013.19596,309.59798 992.195959,319 969,319 C945.804041,319 924.804041,309.59798 909.60303,294.39697 C894.40202,279.195959 885,258.195959 885,235 C885,211.804041 894.40202,190.804041 909.60303,175.60303 C924.804041,160.40202 945.804041,151 969,151 Z M969,193 C957.40202,193 946.90202,197.70101 939.301515,205.301515 C931.70101,212.90202 927,223.40202 927,235 C927,246.59798 931.70101,257.09798 939.301515,264.698485 C946.90202,272.29899 957.40202,277 969,277 C980.59798,277 991.09798,272.29899 998.698485,264.698485 C1006.29899,257.09798 1011,246.59798 1011,235 C1011,223.40202 1006.29899,212.90202 998.698485,205.301515 C991.09798,197.70101 980.59798,193 969,193 Z M678,101 C683.79899,101 689.04899,103.350505 692.849242,107.150758 C696.649495,110.95101 699,116.20101 699,122 C699,127.736092 696.700229,132.935058 692.97238,136.725082 C689.241763,140.517921 684.081031,142.900002 678.363699,142.99692 L678.363699,142.99692 L635,143.000149 L635,298 C635,303.736092 632.700229,308.935058 628.97238,312.725082 C625.241751,316.517933 620.080997,318.900017 614.362581,318.996916 C608.467016,318.993863 603.188482,316.712105 599.352512,313.000956 C595.495988,309.269923 593.100279,304.09667 593.003081,298.363752 L593.003081,298.363752 L592.99996,143 L550.016309,143 C544.132423,142.901972 538.885323,140.535756 535.104812,136.755245 C531.31331,132.963743 529,127.751925 529,122 C529,116.263908 531.299771,111.064942 535.02762,107.274918 C538.758226,103.48209 543.918939,101.100012 549.636251,101.003081 L549.636251,101.003081 Z M462,165 C467.736092,165 472.935058,167.299771 476.725082,171.02762 C480.517911,174.758227 482.899989,179.918941 482.996919,185.636255 L482.996919,185.636255 L483,298 C483,303.79899 480.649495,309.04899 476.849242,312.849242 C473.04899,316.649495 467.79899,319 462,319 C456.263908,319 451.064942,316.700229 447.274918,312.97238 C443.482089,309.241773 441.100011,304.081059 441.003081,298.363745 L441.003081,298.363745 L441,186.016282 C441.098036,180.132407 443.46425,174.885317 447.244755,171.104812 C451.036257,167.31331 456.248075,165 462,165 Z M378,165 C383.736092,165 388.935058,167.299771 392.725082,171.02762 C396.517911,174.758227 398.899989,179.918941 398.996919,185.636255 L398.996919,185.636255 L399,298 C399,303.79899 396.649495,309.04899 392.849242,312.849242 C389.04899,316.649495 383.79899,319 378,319 C372.263908,319 367.064942,316.700229 363.274918,312.97238 C359.482089,309.241773 357.100011,304.081059 357.003081,298.363745 L357.003081,298.363745 L357,186.016282 C357.098036,180.132407 359.46425,174.885317 363.244755,171.104812 C367.036257,167.31331 372.248075,165 378,165 Z M248,105 C266.300954,105 282.888161,112.337484 294.980186,124.231138 C307.090822,136.143099 314.692704,152.625181 314.990888,170.88333 L314.990888,170.88333 L315,172.008101 L315,298 C315,303.79899 312.649495,309.04899 308.849242,312.849242 C305.04899,316.649495 299.79899,319 294,319 C288.263908,319 283.064942,316.700229 279.274918,312.97238 C275.482089,309.241773 273.100011,304.081058 273.003081,298.363745 L273.003081,298.363745 L273.001354,237.073249 L273,171.984314 C272.892535,164.992575 270.071848,158.764561 265.583672,154.276385 C261.065379,149.758092 254.85488,147 248,147 C241.245023,147 235.115812,149.679111 230.616843,154.032618 C226.095294,158.407975 223.220909,164.474753 223.012177,171.2128 L223.012177,171.2128 L223.000645,237.073976 L223,298 C223,303.79899 220.649495,309.04899 216.849242,312.849242 C213.04899,316.649495 207.79899,319 202,319 C196.263908,319 191.064942,316.700229 187.274918,312.97238 C183.482089,309.241773 181.100011,304.081058 181.003081,298.363745 L181.003081,298.363745 L181.001354,237.073249 L181,171.984314 C180.892535,164.992575 178.071848,158.764561 173.583672,154.276385 C169.065379,149.758092 162.85488,147 156,147 C149.245023,147 143.115812,149.679111 138.616843,154.032618 C134.095294,158.407975 131.220909,164.474753 131.012177,171.2128 L131.012177,171.2128 L131.000645,237.073976 L131,298 C131,303.79899 128.649495,309.04899 124.849242,312.849242 C121.04899,316.649495 115.79899,319 110,319 C104.263908,319 99.0649424,316.700229 95.2749178,312.97238 C91.4820898,309.241774 89.1000119,304.08106 89.0030809,298.363748 L89.0030809,298.363748 L89.0000002,172.008077 L89.0091122,170.88333 C89.3072959,152.625181 96.9091784,136.143099 109.019814,124.231138 C121.111839,112.337484 137.699046,105 156,105 C173.160621,105 188.814505,111.451439 200.668175,122.061612 C201.118186,122.464416 201.562845,122.873324 202.002709,123.288067 C202.441749,122.873149 202.886282,122.464228 203.33617,122.061414 C215.186602,111.450969 230.839997,105 248,105 Z M462,101 C467.79899,101 473.04899,103.350505 476.849242,107.150758 C480.649495,110.95101 483,116.20101 483,122 C483,127.79899 480.649495,133.04899 476.849242,136.849242 C473.04899,140.649495 467.79899,143 462,143 C456.20101,143 450.95101,140.649495 447.150758,136.849242 C443.350505,133.04899 441,127.79899 441,122 C441,116.20101 443.350505,110.95101 447.150758,107.150758 C450.95101,103.350505 456.20101,101 462,101 Z M378,101 C383.79899,101 389.04899,103.350505 392.849242,107.150758 C396.649495,110.95101 399,116.20101 399,122 C399,127.79899 396.649495,133.04899 392.849242,136.849242 C389.04899,140.649495 383.79899,143 378,143 C372.20101,143 366.95101,140.649495 363.150758,136.849242 C359.350505,133.04899 357,127.79899 357,122 C357,116.20101 359.350505,110.95101 363.150758,107.150758 C366.95101,103.350505 372.20101,101 378,101 Z" stroke-linejoin="square"></path>
        </g>
        <g id="main" mask="url(#mask-3)">
            <g transform="translate(87.000000, 99.000000)">
                <mask id="mask-5" fill="white">
                    <use xlink:href="#path-4"></use>
                </mask>
                <g id="mask" stroke="none" fill="none">
                    <use fill="url(#linearGradient-1)" fill-rule="evenodd" xlink:href="#path-4"></use>
                    <path stroke="#000000" stroke-width="9" d="M1025,-3.5 C1032.51169,-3.5 1039.31991,-0.488201347 1044.28311,4.39357216 C1049.26342,9.29218294 1052.38534,16.0738817 1052.49692,23.5847156 L1052.49692,23.5847156 L1052.5,154 C1052.5,159.053169 1054.52591,163.63319 1057.80995,166.971995 C1061.09224,170.309031 1065.63112,172.406785 1070.66053,172.496955 C1078.41151,172.509218 1085.33109,175.568826 1090.33083,180.487883 C1095.39789,185.473189 1098.5,192.374132 1098.5,200 C1098.5,207.593915 1095.42196,214.468915 1090.44544,219.445436 C1085.46892,224.421958 1078.59392,227.5 1071,227.5 C1050.92344,227.5 1032.72698,219.450489 1019.46179,206.40291 C1006.16969,193.328872 997.829506,175.236283 997.509537,155.195462 L997.509537,155.195462 L997.5,154.018228 L997.5,23.9655469 C997.613003,16.280881 1000.71784,9.43934318 1005.64856,4.50861805 C1010.6211,-0.463919784 1017.45577,-3.5 1025,-3.5 L1025,-3.5 Z M678,45.5 C702.990885,45.5 725.615885,55.6295575 741.993164,72.0068363 C758.370442,88.3841151 768.5,111.009115 768.5,136 C768.5,160.990885 758.370442,183.615885 741.993164,199.993164 C725.615885,216.370442 702.990885,226.5 678,226.5 C653.009115,226.5 630.384115,216.370442 614.006836,199.993164 C597.629558,183.615885 587.5,160.990885 587.5,136 C587.5,111.009115 597.629558,88.3841151 614.006836,72.0068363 C630.384115,55.6295575 653.009115,45.5 678,45.5 Z M678,100.5 C668.196946,100.5 659.321946,104.473473 652.897709,110.897709 C646.473473,117.321946 642.5,126.196946 642.5,136 C642.5,145.803054 646.473473,154.678054 652.897709,161.102291 C659.321946,167.526527 668.196946,171.5 678,171.5 C687.803054,171.5 696.678054,167.526527 703.102291,161.102291 C709.526527,154.678054 713.5,145.803054 713.5,136 C713.5,126.196946 709.526527,117.321946 703.102291,110.897709 C696.678054,104.473473 687.803054,100.5 678,100.5 Z M882,45.5 C906.990885,45.5 929.615885,55.6295575 945.993164,72.0068363 C962.370442,88.3841151 972.5,111.009115 972.5,136 C972.5,160.990885 962.370442,183.615885 945.993164,199.993164 C929.615885,216.370442 906.990885,226.5 882,226.5 C857.009115,226.5 834.384115,216.370442 818.006836,199.993164 C801.629558,183.615885 791.5,160.990885 791.5,136 C791.5,111.009115 801.629558,88.3841151 818.006836,72.0068363 C834.384115,55.6295575 857.009115,45.5 882,45.5 Z M882,100.5 C872.196946,100.5 863.321946,104.473473 856.897709,110.897709 C850.473473,117.321946 846.5,126.196946 846.5,136 C846.5,145.803054 850.473473,154.678054 856.897709,161.102291 C863.321946,167.526527 872.196946,171.5 882,171.5 C891.803054,171.5 900.678054,167.526527 907.102291,161.102291 C913.526527,154.678054 917.5,145.803054 917.5,136 C917.5,126.196946 913.526527,117.321946 907.102291,110.897709 C900.678054,104.473473 891.803054,100.5 882,100.5 Z M591,-4.5 C598.593915,-4.5 605.468915,-1.42195765 610.445436,3.55456352 C615.421958,8.53108469 618.5,15.4060847 618.5,23 C618.5,30.5116933 615.488201,37.3199132 610.606428,42.2831082 C605.707843,47.2633949 598.92619,50.3853036 591.415404,50.4969161 L591.415404,50.4969161 L554.5,50.4996649 L554.5,199 C554.5,206.511693 551.488201,213.319913 546.606428,218.283108 C541.716083,223.255018 534.948999,226.374796 527.453298,226.496327 C519.696341,226.498746 512.827883,223.504924 507.832952,218.672528 C502.761472,213.766073 499.615147,206.958359 499.503082,199.415277 L499.503082,199.415277 L499.50009,50.5 L462.965547,50.5 C455.280881,50.3869973 448.439343,47.2821639 443.508618,42.3514388 C438.53608,37.3789009 435.5,30.544227 435.5,23 C435.5,15.4883067 438.511799,8.68008683 443.393572,3.71689184 C448.292183,-1.26342106 455.073881,-4.38533643 462.584715,-4.49691782 L462.584715,-4.49691782 Z M375,59.5 C382.511693,59.5 389.319913,62.5117987 394.283108,67.3935722 C399.263419,72.292181 402.385334,79.0738763 402.496918,86.5847067 L402.496918,86.5847067 L402.5,199 C402.5,206.593915 399.421958,213.468915 394.445436,218.445436 C389.468915,223.421958 382.593915,226.5 375,226.5 C367.488307,226.5 360.680087,223.488201 355.716892,218.606428 C350.736581,213.707819 347.614666,206.926124 347.503082,199.415293 L347.503082,199.415293 L347.499999,86.9656111 C347.612985,79.2809192 350.717822,72.4393569 355.648561,67.5086181 C360.621099,62.5360802 367.455773,59.5 375,59.5 Z M291,59.5 C298.511693,59.5 305.319913,62.5117987 310.283108,67.3935722 C315.263419,72.292181 318.385334,79.0738763 318.496918,86.5847067 L318.496918,86.5847067 L318.5,199 C318.5,206.593915 315.421958,213.468915 310.445436,218.445436 C305.468915,223.421958 298.593915,226.5 291,226.5 C283.488307,226.5 276.680087,223.488201 271.716892,218.606428 C266.736581,213.707819 263.614666,206.926124 263.503082,199.415293 L263.503082,199.415293 L263.499999,86.9656111 C263.612985,79.2809192 266.717822,72.4393569 271.648561,67.5086181 C276.621099,62.5360802 283.455773,59.5 291,59.5 Z M161,-0.5 C181.076555,-0.5 199.273016,7.54951143 212.538212,20.5970904 C225.830307,33.6711285 234.170494,51.763717 234.490463,71.8045377 L234.490463,71.8045377 L234.5,72.9817722 L234.5,199 C234.5,206.593915 231.421958,213.468915 226.445436,218.445436 C221.468915,223.421958 214.593915,226.5 207,226.5 C199.488307,226.5 192.680087,223.488201 187.716892,218.606428 C182.736581,213.707819 179.614666,206.926125 179.503082,199.415295 L179.503082,199.415295 L179.501354,138.073384 L179.500001,73.0377879 C179.408307,67.8456817 177.326009,63.2111107 173.987478,59.8725791 C170.650221,56.5353221 166.062579,54.5 161,54.5 C156.001556,54.5 151.466026,56.48222 148.136903,59.7037051 C144.812461,62.92066 142.689885,67.3730072 142.512158,72.3214363 L142.512158,72.3214363 L142.500645,138.074044 L142.5,199 C142.5,206.593915 139.421958,213.468915 134.445436,218.445436 C129.468915,223.421958 122.593915,226.5 115,226.5 C107.488307,226.5 100.680087,223.488201 95.7168918,218.606428 C90.7365811,213.707819 87.6146663,206.926125 87.5030823,199.415295 L87.5030823,199.415295 L87.5013536,138.073384 L87.5000008,73.0377879 C87.4083068,67.8456817 85.3260093,63.2111107 81.9874777,59.8725791 C78.6502207,56.5353221 74.0625785,54.5 69,54.5 C64.0015564,54.5 59.4660264,56.48222 56.1369029,59.7037051 C52.8124608,62.92066 50.6898846,67.3730072 50.5121581,72.3214363 L50.5121581,72.3214363 L50.5006453,138.074044 L50.5,199 C50.5,206.593915 47.4219577,213.468915 42.4454365,218.445436 C37.4689153,223.421958 30.5939153,226.5 23,226.5 C15.4883067,226.5 8.68008683,223.488201 3.71689184,218.606428 C-1.26342086,213.707817 -4.38533619,206.926119 -4.49691781,199.415286 L-4.49691781,199.415286 L-4.50000044,72.981827 L-4.49046276,71.8045377 C-4.17049444,51.763717 4.16969276,33.6711285 17.4617884,20.5970904 C30.7269836,7.54951143 48.9234446,-0.5 69,-0.5 C86.4118285,-0.5 102.409337,5.55478112 115.002822,15.6713824 C127.593121,5.55387612 143.589488,-0.5 161,-0.5 Z M375,-4.5 C382.593915,-4.5 389.468915,-1.42195765 394.445436,3.55456352 C399.421958,8.53108469 402.5,15.4060847 402.5,23 C402.5,30.5939153 399.421958,37.4689153 394.445436,42.4454365 C389.468915,47.4219577 382.593915,50.5 375,50.5 C367.406085,50.5 360.531085,47.4219577 355.554564,42.4454365 C350.578042,37.4689153 347.5,30.5939153 347.5,23 C347.5,15.4060847 350.578042,8.53108469 355.554564,3.55456352 C360.531085,-1.42195765 367.406085,-4.5 375,-4.5 L375,-4.5 Z M291,-4.5 C298.593915,-4.5 305.468915,-1.42195765 310.445436,3.55456352 C315.421958,8.53108469 318.5,15.4060847 318.5,23 C318.5,30.5939153 315.421958,37.4689153 310.445436,42.4454365 C305.468915,47.4219577 298.593915,50.5 291,50.5 C283.406085,50.5 276.531085,47.4219577 271.554564,42.4454365 C266.578042,37.4689153 263.5,30.5939153 263.5,23 C263.5,15.4060847 266.578042,8.53108469 271.554564,3.55456352 C276.531085,-1.42195765 283.406085,-4.5 291,-4.5 Z"></path>
                    <path stroke="#FFFFFF" stroke-width="4" d="M1025,3 C1030.73609,3 1035.93506,5.29977093 1039.72508,9.02761996 C1043.51791,12.7582262 1045.89999,17.9189391 1045.99692,23.6362509 L1045.99692,23.6362509 L1046,154 C1046,160.82877 1048.73794,167.018046 1053.1759,171.530021 C1057.62151,176.049784 1063.7731,178.886175 1070.58723,178.996656 C1076.5852,178.998324 1081.92183,181.333101 1085.77217,185.121308 C1089.63599,188.922783 1092,194.185406 1092,200 C1092,205.79899 1089.64949,211.04899 1085.84924,214.849242 C1082.04899,218.649495 1076.79899,221 1071,221 C1052.69905,221 1036.11184,213.662516 1024.01981,201.768862 C1011.90918,189.856901 1004.3073,173.374819 1004.00911,155.11667 L1004.00911,155.11667 L1004,153.991899 L1004,24.0163091 C1004.09803,18.132423 1006.46424,12.8853231 1010.24476,9.10481213 C1014.03626,5.31331045 1019.24807,3 1025,3 L1025,3 Z M678,52 C701.195959,52 722.195959,61.4020203 737.39697,76.6030304 C752.59798,91.8040405 762,112.804041 762,136 C762,159.195959 752.59798,180.195959 737.39697,195.39697 C722.195959,210.59798 701.195959,220 678,220 C654.804041,220 633.804041,210.59798 618.60303,195.39697 C603.40202,180.195959 594,159.195959 594,136 C594,112.804041 603.40202,91.8040405 618.60303,76.6030304 C633.804041,61.4020203 654.804041,52 678,52 Z M678,94 C666.40202,94 655.90202,98.7010101 648.301515,106.301515 C640.70101,113.90202 636,124.40202 636,136 C636,147.59798 640.70101,158.09798 648.301515,165.698485 C655.90202,173.29899 666.40202,178 678,178 C689.59798,178 700.09798,173.29899 707.698485,165.698485 C715.29899,158.09798 720,147.59798 720,136 C720,124.40202 715.29899,113.90202 707.698485,106.301515 C700.09798,98.7010101 689.59798,94 678,94 Z M882,52 C905.195959,52 926.195959,61.4020203 941.39697,76.6030304 C956.59798,91.8040405 966,112.804041 966,136 C966,159.195959 956.59798,180.195959 941.39697,195.39697 C926.195959,210.59798 905.195959,220 882,220 C858.804041,220 837.804041,210.59798 822.60303,195.39697 C807.40202,180.195959 798,159.195959 798,136 C798,112.804041 807.40202,91.8040405 822.60303,76.6030304 C837.645697,61.5603641 858.36717,52.1965047 881.275845,52.0030565 L882,52 L882,52 Z M882,94 C870.40202,94 859.90202,98.7010101 852.301515,106.301515 C844.70101,113.90202 840,124.40202 840,136 C840,147.59798 844.70101,158.09798 852.301515,165.698485 C859.90202,173.29899 870.40202,178 882,178 C893.59798,178 904.09798,173.29899 911.698485,165.698485 C919.29899,158.09798 924,147.59798 924,136 C924,124.40202 919.29899,113.90202 911.698485,106.301515 C904.09798,98.7010101 893.59798,94 882,94 Z M591,2 C596.79899,2 602.04899,4.35050506 605.849242,8.1507576 C609.649495,11.9510101 612,17.2010101 612,23 C612,28.7360922 609.700229,33.9350576 605.97238,37.7250822 C602.241763,41.517921 597.081031,43.9000017 591.363699,43.9969199 L591.363699,43.9969199 L548,44.0001489 L548,199 C548,204.736092 545.700229,209.935058 541.97238,213.725082 C538.241751,217.517933 533.080997,219.900017 527.362581,219.996916 C521.467016,219.993863 516.188482,217.712105 512.352512,214.000956 C508.495988,210.269923 506.100279,205.09667 506.003081,199.363752 L506.003081,199.363752 L505.99996,44 L463.016309,44 C457.132423,43.9019717 451.885323,41.5357556 448.104812,37.7552447 C444.31331,33.963743 442,28.7519253 442,23 C442,17.2639078 444.299771,12.0649424 448.02762,8.27491783 C451.758226,4.48208993 456.918939,2.10001201 462.636251,2.00308095 L462.636251,2.00308095 Z M375,66 C380.736092,66 385.935058,68.2997709 389.725082,72.02762 C393.517911,75.758227 395.899989,80.9189413 395.996919,86.6362546 L395.996919,86.6362546 L396,199 C396,204.79899 393.649495,210.04899 389.849242,213.849242 C386.04899,217.649495 380.79899,220 375,220 C369.263908,220 364.064942,217.700229 360.274918,213.97238 C356.482089,210.241773 354.100011,205.081059 354.003081,199.363745 L354.003081,199.363745 L354,87.0162823 C354.098036,81.132407 356.46425,75.8853173 360.244755,72.1048121 C364.036257,68.3133105 369.248075,66 375,66 Z M291,66 C296.736092,66 301.935058,68.2997709 305.725082,72.02762 C309.517911,75.758227 311.899989,80.9189413 311.996919,86.6362546 L311.996919,86.6362546 L312,199 C312,204.79899 309.649495,210.04899 305.849242,213.849242 C302.04899,217.649495 296.79899,220 291,220 C285.263908,220 280.064942,217.700229 276.274918,213.97238 C272.482089,210.241773 270.100011,205.081059 270.003081,199.363745 L270.003081,199.363745 L270,87.0162823 C270.098036,81.132407 272.46425,75.8853173 276.244755,72.1048121 C280.036257,68.3133105 285.248075,66 291,66 Z M161,6 C179.300954,6 195.888161,13.3374837 207.980186,25.2311382 C220.090822,37.1430985 227.692704,53.6251806 227.990888,71.8833303 L227.990888,71.8833303 L228,73.0081013 L228,199 C228,204.79899 225.649495,210.04899 221.849242,213.849242 C218.04899,217.649495 212.79899,220 207,220 C201.263908,220 196.064942,217.700229 192.274918,213.97238 C188.482089,210.241773 186.100011,205.081058 186.003081,199.363745 L186.003081,199.363745 L186.001354,138.073249 L186,72.9843137 C185.892535,65.9925749 183.071848,59.7645608 178.583672,55.276385 C174.065379,50.7580918 167.85488,48 161,48 C154.245023,48 148.115812,50.6791109 143.616843,55.0326177 C139.095294,59.4079746 136.220909,65.4747525 136.012177,72.2127998 L136.012177,72.2127998 L136.000645,138.073976 L136,199 C136,204.79899 133.649495,210.04899 129.849242,213.849242 C126.04899,217.649495 120.79899,220 115,220 C109.263908,220 104.064942,217.700229 100.274918,213.97238 C96.482089,210.241773 94.1000109,205.081058 94.0030809,199.363745 L94.0030809,199.363745 L94.0013536,138.073249 L93.9999997,72.9843137 C93.8925354,65.9925749 91.0718476,59.7645608 86.5836718,55.276385 C82.0653787,50.7580918 75.8548802,48 69,48 C62.245023,48 56.115812,50.6791109 51.6168428,55.0326177 C47.0952935,59.4079746 44.2209088,65.4747525 44.012177,72.2127998 L44.012177,72.2127998 L44.0006453,138.073976 L44,199 C44,204.79899 41.6494949,210.04899 37.8492424,213.849242 C34.0489899,217.649495 28.7989899,220 23,220 C17.2639078,220 12.0649424,217.700229 8.27491783,213.97238 C4.48208985,210.241774 2.1000119,205.08106 2.00308094,199.363748 L2.00308094,199.363748 L2.0000002,73.0080769 L2.00911222,71.8833303 C2.3072959,53.6251806 9.90917841,37.1430985 22.0198144,25.2311382 C34.1118392,13.3374837 50.6990457,6 69,6 C86.1606207,6 101.814505,12.4514392 113.668175,23.0616125 C114.118186,23.4644157 114.562845,23.873324 115.002709,24.2880668 C115.441749,23.873149 115.886282,23.4642279 116.33617,23.0614143 C128.186602,12.450969 143.839997,6 161,6 L161,6 Z M375,2 C380.79899,2 386.04899,4.35050506 389.849242,8.1507576 C393.649495,11.9510101 396,17.2010101 396,23 C396,28.7989899 393.649495,34.0489899 389.849242,37.8492424 C386.04899,41.6494949 380.79899,44 375,44 C369.20101,44 363.95101,41.6494949 360.150758,37.8492424 C356.350505,34.0489899 354,28.7989899 354,23 C354,17.2010101 356.350505,11.9510101 360.150758,8.1507576 C363.95101,4.35050506 369.20101,2 375,2 Z M291,2 C296.79899,2 302.04899,4.35050506 305.849242,8.1507576 C309.649495,11.9510101 312,17.2010101 312,23 C312,28.7989899 309.649495,34.0489899 305.849242,37.8492424 C302.04899,41.6494949 296.79899,44 291,44 C285.20101,44 279.95101,41.6494949 276.150758,37.8492424 C272.350505,34.0489899 270,28.7989899 270,23 C270,17.2010101 272.350505,11.9510101 276.150758,8.1507576 C279.95101,4.35050506 285.20101,2 291,2 Z" stroke-linejoin="square"></path>
                </g>
                <path d="M10.8254744,204.964117 L21.3548973,215.49354 L10.8254744,226.022963 L10.786,225.982608 L10.7461435,226.022963 L0.216720616,215.49354 L10.7461435,204.964117 L10.786,205.003608 L10.8254744,204.964117 Z M1086.82547,204.964117 L1097.3549,215.49354 L1086.82547,226.022963 L1086.786,225.982608 L1086.74614,226.022963 L1076.21672,215.49354 L1086.74614,204.964117 L1086.786,205.003608 L1086.82547,204.964117 Z M919.825474,204.964117 L930.354897,215.49354 L919.825474,226.022963 L919.786,225.982608 L919.746144,226.022963 L909.216721,215.49354 L919.746144,204.964117 L919.786,205.003608 L919.825474,204.964117 Z M715.825474,204.964117 L726.354897,215.49354 L715.825474,226.022963 L715.786,225.982608 L715.746144,226.022963 L705.216721,215.49354 L715.746144,204.964117 L715.786,205.003608 L715.825474,204.964117 Z M1111.82547,204.964117 L1122.3549,215.49354 L1111.82547,226.022963 L1111.786,225.982608 L1111.74614,226.022963 L1101.21672,215.49354 L1111.74614,204.964117 L1111.786,205.003608 L1111.82547,204.964117 Z M514.825474,204.964117 L525.354897,215.49354 L514.825474,226.022963 L514.786,225.982608 L514.746144,226.022963 L504.216721,215.49354 L514.746144,204.964117 L514.786,205.003608 L514.825474,204.964117 Z M969.825474,181.317777 L978.138177,189.63048 L974.456721,193.311035 L983.706872,202.56201 L975.564721,210.704035 L978.285721,213.424035 L986.746144,204.964117 L986.786,205.003608 L986.825474,204.964117 L997.354897,215.49354 L986.825474,226.022963 L986.786,225.982608 L986.746144,226.022963 L978.284721,217.561035 L969.825474,226.022963 L965.785721,221.983035 L961.746144,226.022963 L953.285721,217.562035 L944.825474,226.022963 L944.786,225.982608 L944.746144,226.022963 L934.216721,215.49354 L944.746144,204.964117 L944.786,205.003608 L944.825474,204.964117 L953.285721,213.424035 L956.005721,210.703035 L947.864746,202.56201 L957.114721,193.312035 L953.433441,189.63048 L961.746144,181.317777 L965.785721,185.357035 L969.825474,181.317777 Z M1036.82547,204.964117 L1047.3549,215.49354 L1036.82547,226.022963 L1036.786,225.982608 L1036.74614,226.022963 L1026.21672,215.49354 L1036.74614,204.964117 L1036.786,205.003608 L1036.82547,204.964117 Z M740.825474,204.964117 L751.354897,215.49354 L740.825474,226.022963 L740.786,225.982608 L740.746144,226.022963 L730.216721,215.49354 L740.746144,204.964117 L740.786,205.003608 L740.825474,204.964117 Z M362.825474,204.964117 L373.354897,215.49354 L362.825474,226.022963 L362.786,225.982608 L362.746144,226.022963 L352.216721,215.49354 L362.746144,204.964117 L362.786,205.003608 L362.825474,204.964117 Z M869.825474,204.964117 L880.354897,215.49354 L869.825474,226.022963 L869.786,225.982608 L869.746144,226.022963 L859.216721,215.49354 L869.746144,204.964117 L869.786,205.003608 L869.825474,204.964117 Z M1011.82547,204.964117 L1022.3549,215.49354 L1011.82547,226.022963 L1011.786,225.983035 L1011.74614,226.022963 L1001.21672,215.49354 L1011.74614,204.964117 L1011.786,205.003608 L1011.82547,204.964117 Z M278.825474,204.964117 L289.354897,215.49354 L278.825474,226.022963 L278.786,225.982608 L278.746144,226.022963 L268.216721,215.49354 L278.746144,204.964117 L278.786,205.003608 L278.825474,204.964117 Z M665.825474,204.964117 L676.354897,215.49354 L665.825474,226.022963 L665.786,225.982608 L665.746144,226.022963 L655.216721,215.49354 L665.746144,204.964117 L665.786,205.003608 L665.825474,204.964117 Z M1136.82547,204.964117 L1146.285,214.423608 L1146.285,216.561608 L1136.82547,226.022963 L1126.29605,215.49354 L1136.82547,204.964117 Z M794.746144,204.964117 L805.275566,215.49354 L794.746144,226.022963 L784.216721,215.49354 L794.746144,204.964117 Z M564.825474,204.964117 L574.285,214.423608 L574.285,216.561608 L564.825474,226.022963 L554.296051,215.49354 L564.825474,204.964117 Z M194.825474,204.964117 L205.354897,215.49354 L194.825474,226.022963 L194.786,225.982608 L194.746144,226.022963 L184.216721,215.49354 L194.746144,204.964117 L194.786,205.003608 L194.825474,204.964117 Z M844.825474,204.964117 L855.354897,215.49354 L844.825474,226.022963 L844.786,225.983035 L844.746144,226.022963 L834.216721,215.49354 L844.746144,204.964117 L844.786,205.003608 L844.825474,204.964117 Z M489.746144,204.964117 L500.275566,215.49354 L489.746144,226.022963 L479.216721,215.49354 L489.746144,204.964117 Z M412.825474,204.964117 L422.285,214.423608 L422.285,216.561608 L412.825474,226.022963 L402.296051,215.49354 L412.825474,204.964117 Z M337.746144,204.964117 L348.275566,215.49354 L337.746144,226.022963 L333.284721,221.561035 L328.825474,226.022963 L318.296051,215.49354 L328.825474,204.964117 L333.285721,209.424035 L337.746144,204.964117 Z M1061.82547,204.964117 L1072.3549,215.49354 L1061.82547,226.022963 L1061.786,225.983035 L1061.74614,226.022963 L1051.21672,215.49354 L1061.74614,204.964117 L1061.786,205.003608 L1061.82547,204.964117 Z M590.746144,204.964117 L601.275566,215.49354 L590.746144,226.022963 L580.216721,215.49354 L590.746144,204.964117 Z M539.825474,204.964117 L550.354897,215.49354 L539.825474,226.022963 L539.786,225.982608 L539.746144,226.022963 L529.216721,215.49354 L539.746144,204.964117 L539.786,205.003608 L539.825474,204.964117 Z M640.825474,204.964117 L651.354897,215.49354 L640.825474,226.022963 L640.786,225.983035 L640.746144,226.022963 L630.216721,215.49354 L640.746144,204.964117 L640.786,205.003608 L640.825474,204.964117 Z M303.825474,204.964117 L314.354897,215.49354 L303.825474,226.022963 L303.786,225.982608 L303.746144,226.022963 L293.216721,215.49354 L303.746144,204.964117 L303.786,205.003608 L303.825474,204.964117 Z M819.825474,204.964117 L830.354897,215.49354 L819.825474,226.022963 L819.786,225.982608 L819.746144,226.022963 L809.216721,215.49354 L819.746144,204.964117 L819.786,205.003608 L819.825474,204.964117 Z M127.825474,204.964117 L138.354897,215.49354 L127.825474,226.022963 L127.786,225.982608 L127.746144,226.022963 L117.216721,215.49354 L127.746144,204.964117 L127.786,205.003608 L127.825474,204.964117 Z M35.8254744,204.964117 L46.3548973,215.49354 L35.8254744,226.022963 L35.786,225.982608 L35.7461435,226.022963 L25.2167206,215.49354 L35.7461435,204.964117 L35.786,205.003608 L35.8254744,204.964117 Z M253.746144,204.964117 L264.275566,215.49354 L253.746144,226.022963 L249.284721,221.561035 L244.825474,226.022963 L234.296051,215.49354 L244.825474,204.964117 L249.285721,209.424035 L253.746144,204.964117 Z M894.825474,204.964117 L905.354897,215.49354 L894.825474,226.022963 L894.786,225.983035 L894.746144,226.022963 L884.216721,215.49354 L894.746144,204.964117 L894.786,205.003608 L894.825474,204.964117 Z M102.825474,204.964117 L113.354897,215.49354 L102.825474,226.022963 L102.786,225.982608 L102.746144,226.022963 L92.2167206,215.49354 L102.746144,204.964117 L102.786,205.003608 L102.825474,204.964117 Z M765.825474,204.964117 L775.285,214.423608 L775.285,216.561608 L765.825474,226.022963 L755.296051,215.49354 L765.825474,204.964117 Z M219.825474,204.964117 L230.354897,215.49354 L219.825474,226.022963 L219.786,225.982608 L219.746144,226.022963 L209.216721,215.49354 L219.746144,204.964117 L219.786,205.003608 L219.825474,204.964117 Z M615.825474,204.964117 L626.354897,215.49354 L615.825474,226.022963 L615.786,225.982608 L615.746144,226.022963 L605.216721,215.49354 L615.746144,204.964117 L615.786,205.003608 L615.825474,204.964117 Z M690.825474,204.964117 L701.354897,215.49354 L690.825474,226.022963 L690.786,225.983035 L690.746144,226.022963 L680.216721,215.49354 L690.746144,204.964117 L690.786,205.003608 L690.825474,204.964117 Z M-14.2538565,204.964117 L-3.72443353,215.49354 L-14.2538565,226.022963 L-24.7832794,215.49354 L-14.2538565,204.964117 Z M387.825474,204.964117 L398.354897,215.49354 L387.825474,226.022963 L387.786,225.982608 L387.746144,226.022963 L377.216721,215.49354 L387.746144,204.964117 L387.786,205.003608 L387.825474,204.964117 Z M169.746144,204.964117 L180.275566,215.49354 L169.746144,226.022963 L161.284721,217.561035 L152.825474,226.022963 L142.296051,215.49354 L152.825474,204.964117 L161.285721,213.424035 L169.746144,204.964117 Z M77.7461435,204.964117 L88.2755665,215.49354 L77.7461435,226.022963 L69.2847206,217.561035 L60.8254744,226.022963 L50.2960515,215.49354 L60.8254744,204.964117 L69.2857206,213.424035 L77.7461435,204.964117 Z M266.285809,193.140947 L275.706872,202.56201 L266.285809,211.983072 L256.864746,202.56201 L266.285809,193.140947 Z M400.285809,193.140947 L409.706872,202.56201 L400.285809,211.983072 L390.864746,202.56201 L400.285809,193.140947 Z M1049.28581,193.140947 L1058.70687,202.56201 L1049.28581,211.983072 L1039.86475,202.56201 L1049.28581,193.140947 Z M1099.28581,193.140947 L1108.70687,202.56201 L1099.28581,211.983072 L1089.86475,202.56201 L1099.28581,193.140947 Z M753.285809,193.140947 L762.706872,202.56201 L753.285809,211.983072 L743.864746,202.56201 L753.285809,193.140947 Z M1124.28581,193.140947 L1133.70687,202.56201 L1124.28581,211.983072 L1114.86475,202.56201 L1124.28581,193.140947 Z M1074.28581,193.140947 L1083.70687,202.56201 L1074.28581,211.983072 L1064.86475,202.56201 L1074.28581,193.140947 Z M1024.28581,193.140947 L1033.70687,202.56201 L1024.28581,211.983072 L1014.86475,202.56201 L1024.28581,193.140947 Z M999.285809,193.140947 L1008.70687,202.56201 L999.285809,211.983072 L989.864746,202.56201 L999.285809,193.140947 Z M832.285809,193.140947 L841.706872,202.56201 L832.285809,211.983072 L822.864746,202.56201 L832.285809,193.140947 Z M90.285809,193.140947 L99.7068716,202.56201 L90.285809,211.983072 L80.8647464,202.56201 L90.285809,193.140947 Z M807.285809,193.140947 L816.706872,202.56201 L807.285809,211.983072 L797.864746,202.56201 L807.285809,193.140947 Z M907.285809,193.140947 L916.706872,202.56201 L907.285809,211.983072 L897.864746,202.56201 L907.285809,193.140947 Z M882.285809,193.140947 L891.706872,202.56201 L882.285809,211.983072 L872.864746,202.56201 L882.285809,193.140947 Z M728.285809,193.140947 L737.706872,202.56201 L728.285809,211.983072 L718.864746,202.56201 L728.285809,193.140947 Z M932.285809,193.140947 L941.706872,202.56201 L932.285809,211.983072 L922.864746,202.56201 L932.285809,193.140947 Z M628.285809,193.140947 L637.706872,202.56201 L628.285809,211.983072 L618.864746,202.56201 L628.285809,193.140947 Z M291.285809,193.140947 L300.706872,202.56201 L291.285809,211.983072 L281.864746,202.56201 L291.285809,193.140947 Z M316.285809,193.140947 L325.706872,202.56201 L316.285809,211.983072 L306.864746,202.56201 L316.285809,193.140947 Z M527.285809,193.140947 L536.706872,202.56201 L527.285809,211.983072 L517.864746,202.56201 L527.285809,193.140947 Z M552.285809,193.140947 L561.706872,202.56201 L552.285809,211.983072 L542.864746,202.56201 L552.285809,193.140947 Z M140.285809,193.140947 L149.706872,202.56201 L140.285809,211.983072 L130.864746,202.56201 L140.285809,193.140947 Z M115.285809,193.140947 L124.706872,202.56201 L115.285809,211.983072 L105.864746,202.56201 L115.285809,193.140947 Z M23.285809,193.140947 L32.7068716,202.56201 L23.285809,211.983072 L13.8647464,202.56201 L23.285809,193.140947 Z M48.285809,193.140947 L57.7068716,202.56201 L48.285809,211.983072 L38.8647464,202.56201 L48.285809,193.140947 Z M-1.71419102,193.140947 L7.7068716,202.56201 L-1.71419102,211.983072 L-11.1352536,202.56201 L-1.71419102,193.140947 Z M857.285809,193.140947 L866.706872,202.56201 L857.285809,211.983072 L847.864746,202.56201 L857.285809,193.140947 Z M207.285809,193.140947 L216.706872,202.56201 L207.285809,211.983072 L197.864746,202.56201 L207.285809,193.140947 Z M232.285809,193.140947 L241.706872,202.56201 L232.285809,211.983072 L222.864746,202.56201 L232.285809,193.140947 Z M182.285809,193.140947 L191.706872,202.56201 L182.285809,211.983072 L172.864746,202.56201 L182.285809,193.140947 Z M502.285809,193.140947 L511.706872,202.56201 L502.285809,211.983072 L492.864746,202.56201 L502.285809,193.140947 Z M375.285809,193.140947 L384.706872,202.56201 L375.285809,211.983072 L365.864746,202.56201 L375.285809,193.140947 Z M603.285809,193.140947 L612.706872,202.56201 L603.285809,211.983072 L593.864746,202.56201 L603.285809,193.140947 Z M350.285809,193.140947 L359.706872,202.56201 L350.285809,211.983072 L340.864746,202.56201 L350.285809,193.140947 Z M678.285809,193.140947 L687.706872,202.56201 L678.285809,211.983072 L668.864746,202.56201 L678.285809,193.140947 Z M653.285809,193.140947 L662.706872,202.56201 L653.285809,211.983072 L643.864746,202.56201 L653.285809,193.140947 Z M703.285809,193.140947 L712.706872,202.56201 L703.285809,211.983072 L693.864746,202.56201 L703.285809,193.140947 Z M965.785721,203.482035 L963.024721,206.243035 L965.785721,209.004035 L968.545721,206.243035 L965.785721,203.482035 Z M965.785721,193.903035 L961.917721,197.772035 L965.785721,201.640035 L969.653721,197.772035 L965.785721,193.903035 Z M715.825474,181.317777 L724.138177,189.63048 L715.825474,197.943182 L715.785,197.903035 L715.746144,197.943182 L707.433441,189.63048 L715.746144,181.317777 L715.785,181.356608 L715.825474,181.317777 Z M219.825474,181.317777 L228.138177,189.63048 L219.825474,197.943182 L219.785,197.902608 L219.746144,197.943182 L211.433441,189.63048 L219.746144,181.317777 L219.785,181.356608 L219.825474,181.317777 Z M640.825474,181.317777 L649.138177,189.63048 L640.825474,197.943182 L640.786,197.903035 L640.746144,197.943182 L632.433441,189.63048 L640.746144,181.317777 L640.785,181.356608 L640.825474,181.317777 Z M35.8254744,181.317777 L44.1381767,189.63048 L35.8254744,197.943182 L35.785,197.902608 L35.7461435,197.943182 L27.4334412,189.63048 L35.7461435,181.317777 L35.785,181.356608 L35.8254744,181.317777 Z M412.825474,181.317777 L421.138177,189.63048 L412.825474,197.943182 L404.512772,189.63048 L412.825474,181.317777 Z M303.825474,181.317777 L312.138177,189.63048 L303.825474,197.943182 L303.785,197.902608 L303.746144,197.943182 L295.433441,189.63048 L303.746144,181.317777 L303.785,181.356608 L303.825474,181.317777 Z M127.825474,181.317777 L136.138177,189.63048 L127.825474,197.943182 L127.785,197.902608 L127.746144,197.943182 L119.433441,189.63048 L127.746144,181.317777 L127.785,181.356608 L127.825474,181.317777 Z M387.825474,181.317777 L396.138177,189.63048 L387.825474,197.943182 L387.785,197.902608 L387.746144,197.943182 L379.433441,189.63048 L387.746144,181.317777 L387.785,181.356608 L387.825474,181.317777 Z M665.825474,181.317777 L674.138177,189.63048 L665.825474,197.943182 L665.785,197.903035 L665.746144,197.943182 L657.433441,189.63048 L665.746144,181.317777 L665.785,181.356608 L665.825474,181.317777 Z M514.825474,181.317777 L523.138177,189.63048 L514.825474,197.943182 L514.785,197.902608 L514.746144,197.943182 L506.433441,189.63048 L514.746144,181.317777 L514.785,181.356608 L514.825474,181.317777 Z M278.825474,181.317777 L287.138177,189.63048 L278.825474,197.943182 L278.785,197.902608 L278.746144,197.943182 L270.433441,189.63048 L278.746144,181.317777 L278.785,181.356608 L278.825474,181.317777 Z M564.825474,181.317777 L573.138177,189.63048 L564.825474,197.943182 L556.512772,189.63048 L564.825474,181.317777 Z M337.746144,181.317777 L346.058846,189.63048 L337.746144,197.943182 L333.285721,193.483035 L328.825474,197.943182 L320.512772,189.63048 L328.825474,181.317777 L333.285721,185.778035 L337.746144,181.317777 Z M1036.82547,181.317777 L1045.13818,189.63048 L1036.82547,197.943182 L1036.785,197.903035 L1036.74614,197.943182 L1028.43344,189.63048 L1036.74614,181.317777 L1036.785,181.356608 L1036.82547,181.317777 Z M253.746144,181.317777 L262.058846,189.63048 L253.746144,197.943182 L249.285721,193.483035 L244.825474,197.943182 L236.512772,189.63048 L244.825474,181.317777 L249.285721,185.778035 L253.746144,181.317777 Z M-14.2538565,181.317777 L-5.94115415,189.63048 L-14.2538565,197.943182 L-22.5665588,189.63048 L-14.2538565,181.317777 Z M77.7461435,181.317777 L86.0588459,189.63048 L77.7461435,197.943182 L69.4334412,189.63048 L77.7461435,181.317777 Z M10.8254744,181.317777 L19.1381767,189.63048 L10.8254744,197.943182 L10.785,197.902608 L10.7461435,197.943182 L2.43344123,189.63048 L10.7461435,181.317777 L10.785,181.356608 L10.8254744,181.317777 Z M740.825474,181.317777 L749.138177,189.63048 L740.825474,197.943182 L740.785,197.902608 L740.746144,197.943182 L732.433441,189.63048 L740.746144,181.317777 L740.785,181.356608 L740.825474,181.317777 Z M489.746144,181.317777 L498.058846,189.63048 L489.746144,197.943182 L481.433441,189.63048 L489.746144,181.317777 Z M869.825474,181.317777 L878.138177,189.63048 L869.825474,197.943182 L869.785,197.903035 L869.746144,197.943182 L861.433441,189.63048 L869.746144,181.317777 L869.785,181.356608 L869.825474,181.317777 Z M844.825474,181.317777 L853.138177,189.63048 L844.825474,197.943182 L844.786,197.903035 L844.746144,197.943182 L836.433441,189.63048 L844.746144,181.317777 L844.785,181.356608 L844.825474,181.317777 Z M194.825474,181.317777 L203.138177,189.63048 L194.825474,197.943182 L194.785,197.902608 L194.746144,197.943182 L186.433441,189.63048 L194.746144,181.317777 L194.785,181.356608 L194.825474,181.317777 Z M944.825474,181.317777 L953.138177,189.63048 L944.825474,197.943182 L944.785,197.902608 L944.746144,197.943182 L936.433441,189.63048 L944.746144,181.317777 L944.785,181.356608 L944.825474,181.317777 Z M794.746144,181.317777 L803.058846,189.63048 L794.746144,197.943182 L786.433441,189.63048 L794.746144,181.317777 Z M819.825474,181.317777 L828.138177,189.63048 L819.825474,197.943182 L819.785,197.902608 L819.746144,197.943182 L811.433441,189.63048 L819.746144,181.317777 L819.785,181.356608 L819.825474,181.317777 Z M362.825474,181.317777 L371.138177,189.63048 L362.825474,197.943182 L362.785,197.902608 L362.746144,197.943182 L354.433441,189.63048 L362.746144,181.317777 L362.785,181.356608 L362.825474,181.317777 Z M919.825474,181.317777 L928.138177,189.63048 L919.825474,197.943182 L919.785,197.903035 L919.746144,197.943182 L911.433441,189.63048 L919.746144,181.317777 L919.785,181.356608 L919.825474,181.317777 Z M894.825474,181.317777 L903.138177,189.63048 L894.825474,197.943182 L894.786,197.903035 L894.746144,197.943182 L886.433441,189.63048 L894.746144,181.317777 L894.785,181.356608 L894.825474,181.317777 Z M690.825474,181.317777 L699.138177,189.63048 L690.825474,197.943182 L690.786,197.903035 L690.746144,197.943182 L682.433441,189.63048 L690.746144,181.317777 L690.785,181.356608 L690.825474,181.317777 Z M590.746144,181.317777 L599.058846,189.63048 L590.746144,197.943182 L582.433441,189.63048 L590.746144,181.317777 Z M102.825474,181.317777 L111.138177,189.63048 L102.825474,197.943182 L102.785,197.902608 L102.746144,197.943182 L94.4334412,189.63048 L102.746144,181.317777 L102.785,181.356608 L102.825474,181.317777 Z M615.825474,181.317777 L624.138177,189.63048 L615.825474,197.943182 L615.785,197.902608 L615.746144,197.943182 L607.433441,189.63048 L615.746144,181.317777 L615.785,181.356608 L615.825474,181.317777 Z M765.825474,181.317777 L774.138177,189.63048 L765.825474,197.943182 L757.512772,189.63048 L765.825474,181.317777 Z M152.825474,181.317777 L161.138177,189.63048 L152.825474,197.943182 L144.512772,189.63048 L152.825474,181.317777 Z M60.8254744,181.317777 L69.1381767,189.63048 L60.8254744,197.943182 L52.5127721,189.63048 L60.8254744,181.317777 Z M169.746144,181.317777 L178.058846,189.63048 L169.746144,197.943182 L161.433441,189.63048 L169.746144,181.317777 Z M539.825474,181.317777 L548.138177,189.63048 L539.825474,197.943182 L539.785,197.902608 L539.746144,197.943182 L531.433441,189.63048 L539.746144,181.317777 L539.785,181.356608 L539.825474,181.317777 Z M1061.82547,181.317777 L1070.13818,189.63048 L1061.82547,197.943182 L1061.786,197.903035 L1061.74614,197.943182 L1053.43344,189.63048 L1061.74614,181.317777 L1061.785,181.356608 L1061.82547,181.317777 Z M1136.82547,181.317777 L1145.13818,189.63048 L1136.82547,197.943182 L1128.51277,189.63048 L1136.82547,181.317777 Z M1086.82547,181.317777 L1095.13818,189.63048 L1086.82547,197.943182 L1086.785,197.903035 L1086.74614,197.943182 L1078.43344,189.63048 L1086.74614,181.317777 L1086.785,181.356608 L1086.82547,181.317777 Z M986.825474,181.317777 L995.138177,189.63048 L986.825474,197.943182 L986.785,197.902608 L986.746144,197.943182 L978.433441,189.63048 L986.746144,181.317777 L986.785,181.356608 L986.825474,181.317777 Z M1111.82547,181.317777 L1120.13818,189.63048 L1111.82547,197.943182 L1111.785,197.902608 L1111.74614,197.943182 L1103.43344,189.63048 L1111.74614,181.317777 L1111.785,181.356608 L1111.82547,181.317777 Z M1011.82547,181.317777 L1020.13818,189.63048 L1011.82547,197.943182 L1011.786,197.903035 L1011.74614,197.943182 L1003.43344,189.63048 L1011.74614,181.317777 L1011.785,181.356608 L1011.82547,181.317777 Z M375.285809,169.494608 L382.490151,176.69895 L375.285809,183.903292 L368.081467,176.69895 L375.285809,169.494608 Z M182.285809,169.494608 L189.490151,176.69895 L182.285809,183.903292 L175.081467,176.69895 L182.285809,169.494608 Z M140.285809,169.494608 L147.490151,176.69895 L140.285809,183.903292 L133.081467,176.69895 L140.285809,169.494608 Z M291.285809,169.494608 L298.490151,176.69895 L291.285809,183.903292 L284.081467,176.69895 L291.285809,169.494608 Z M316.285809,169.494608 L323.490151,176.69895 L316.285809,183.903292 L309.081467,176.69895 L316.285809,169.494608 Z M266.285809,169.494608 L273.490151,176.69895 L266.285809,183.903292 L259.081467,176.69895 L266.285809,169.494608 Z M400.285809,169.494608 L407.490151,176.69895 L400.285809,183.903292 L393.081467,176.69895 L400.285809,169.494608 Z M350.285809,169.494608 L357.490151,176.69895 L350.285809,183.903292 L343.081467,176.69895 L350.285809,169.494608 Z M957.285809,169.494608 L964.490151,176.69895 L957.285809,183.903292 L950.081467,176.69895 L957.285809,169.494608 Z M882.285809,169.494608 L889.490151,176.69895 L882.285809,183.903292 L875.081467,176.69895 L882.285809,169.494608 Z M857.285809,169.494608 L864.490151,176.69895 L857.285809,183.903292 L850.081467,176.69895 L857.285809,169.494608 Z M807.285809,169.494608 L814.490151,176.69895 L807.285809,183.903292 L800.081467,176.69895 L807.285809,169.494608 Z M832.285809,169.494608 L839.490151,176.69895 L832.285809,183.903292 L825.081467,176.69895 L832.285809,169.494608 Z M907.285809,169.494608 L914.490151,176.69895 L907.285809,183.903292 L900.081467,176.69895 L907.285809,169.494608 Z M932.285809,169.494608 L939.490151,176.69895 L932.285809,183.903292 L925.081467,176.69895 L932.285809,169.494608 Z M23.285809,169.494608 L30.490151,176.69895 L23.285809,183.903292 L16.081467,176.69895 L23.285809,169.494608 Z M90.285809,169.494608 L97.490151,176.69895 L90.285809,183.903292 L83.081467,176.69895 L90.285809,169.494608 Z M48.285809,169.494608 L55.490151,176.69895 L48.285809,183.903292 L41.081467,176.69895 L48.285809,169.494608 Z M-1.71419102,169.494608 L5.49015098,176.69895 L-1.71419102,183.903292 L-8.91853302,176.69895 L-1.71419102,169.494608 Z M115.285809,169.494608 L122.490151,176.69895 L115.285809,183.903292 L108.081467,176.69895 L115.285809,169.494608 Z M232.285809,169.494608 L239.490151,176.69895 L232.285809,183.903292 L225.081467,176.69895 L232.285809,169.494608 Z M207.285809,169.494608 L214.490151,176.69895 L207.285809,183.903292 L200.081467,176.69895 L207.285809,169.494608 Z M527.285809,169.494608 L534.490151,176.69895 L527.285809,183.903292 L520.081467,176.69895 L527.285809,169.494608 Z M552.285809,169.494608 L559.490151,176.69895 L552.285809,183.903292 L545.081467,176.69895 L552.285809,169.494608 Z M502.285809,169.494608 L509.490151,176.69895 L502.285809,183.903292 L495.081467,176.69895 L502.285809,169.494608 Z M753.285809,169.494608 L760.490151,176.69895 L753.285809,183.903292 L746.081467,176.69895 L753.285809,169.494608 Z M728.285809,169.494608 L735.490151,176.69895 L728.285809,183.903292 L721.081467,176.69895 L728.285809,169.494608 Z M703.285809,169.494608 L710.490151,176.69895 L703.285809,183.903292 L696.081467,176.69895 L703.285809,169.494608 Z M628.285809,169.494608 L635.490151,176.69895 L628.285809,183.903292 L621.081467,176.69895 L628.285809,169.494608 Z M603.285809,169.494608 L610.490151,176.69895 L603.285809,183.903292 L596.081467,176.69895 L603.285809,169.494608 Z M653.285809,169.494608 L660.490151,176.69895 L653.285809,183.903292 L646.081467,176.69895 L653.285809,169.494608 Z M678.285809,169.494608 L685.490151,176.69895 L678.285809,183.903292 L671.081467,176.69895 L678.285809,169.494608 Z M1124.28581,169.494608 L1131.49015,176.69895 L1124.28581,183.903292 L1117.08147,176.69895 L1124.28581,169.494608 Z M1099.28581,169.494608 L1106.49015,176.69895 L1099.28581,183.903292 L1092.08147,176.69895 L1099.28581,169.494608 Z M1074.28581,169.494608 L1081.49015,176.69895 L1074.28581,183.903292 L1067.08147,176.69895 L1074.28581,169.494608 Z M999.285809,169.494608 L1006.49015,176.69895 L999.285809,183.903292 L992.081467,176.69895 L999.285809,169.494608 Z M974.285809,169.494608 L981.490151,176.69895 L974.285809,183.903292 L967.081467,176.69895 L974.285809,169.494608 Z M1024.28581,169.494608 L1031.49015,176.69895 L1024.28581,183.903292 L1017.08147,176.69895 L1024.28581,169.494608 Z M1049.28581,169.494608 L1056.49015,176.69895 L1049.28581,183.903292 L1042.08147,176.69895 L1049.28581,169.494608 Z M514.752844,159.139504 L520.303018,164.637212 L514.827218,170.113011 L514.786,170.153 L509.261868,164.63048 L514.752844,159.139504 Z M362.752844,159.139504 L368.303018,164.637212 L362.827218,170.113011 L362.786,170.153 L357.261868,164.63048 L362.752844,159.139504 Z M10.7528437,159.139504 L16.3030175,164.637212 L10.8272183,170.113011 L10.786,170.153 L5.26186836,164.63048 L10.7528437,159.139504 Z M387.752844,159.139504 L393.303018,164.637212 L387.827218,170.113011 L387.786,170.153 L382.261868,164.63048 L387.752844,159.139504 Z M844.752844,159.139504 L850.303018,164.637212 L844.786,170.153 L839.261868,164.63048 L844.752844,159.139504 Z M539.752844,159.139504 L545.303018,164.637212 L539.827218,170.113011 L539.786,170.153 L534.261868,164.63048 L539.752844,159.139504 Z M278.752844,159.139504 L284.303018,164.637212 L278.827218,170.113011 L278.786,170.153 L273.261868,164.63048 L278.752844,159.139504 Z M219.752844,159.139504 L225.303018,164.637212 L219.827218,170.113011 L219.786,170.153 L214.261868,164.63048 L219.752844,159.139504 Z M35.7528437,159.139504 L41.3030175,164.637212 L35.8272183,170.113011 L35.786,170.153 L30.2618684,164.63048 L35.7528437,159.139504 Z M127.752844,159.139504 L133.303018,164.637212 L127.827218,170.113011 L127.786,170.153 L122.261868,164.63048 L127.752844,159.139504 Z M194.752844,159.139504 L200.303018,164.637212 L194.827218,170.113011 L194.786,170.153 L189.261868,164.63048 L194.752844,159.139504 Z M640.752844,159.139504 L646.303018,164.637212 L640.786,170.153 L635.261868,164.63048 L640.752844,159.139504 Z M615.752844,159.139504 L621.303018,164.637212 L615.786,170.153 L610.261868,164.63048 L615.752844,159.139504 Z M690.752844,159.139504 L696.303018,164.637212 L690.786,170.153 L685.261868,164.63048 L690.752844,159.139504 Z M665.752844,159.139504 L671.303018,164.637212 L665.786,170.153 L660.261868,164.63048 L665.752844,159.139504 Z M740.752844,159.139504 L746.303018,164.637212 L740.786,170.153 L735.261868,164.63048 L740.752844,159.139504 Z M715.752844,159.139504 L721.303018,164.637212 L715.786,170.153 L710.261868,164.63048 L715.752844,159.139504 Z M102.752844,159.139504 L108.303018,164.637212 L102.827218,170.113011 L102.786,170.153 L97.2618684,164.63048 L102.752844,159.139504 Z M919.752844,159.139504 L925.303018,164.637212 L919.786,170.153 L914.261868,164.63048 L919.752844,159.139504 Z M944.752844,159.139504 L950.303018,164.637212 L944.786,170.153 L939.261868,164.63048 L944.752844,159.139504 Z M869.752844,159.139504 L875.303018,164.637212 L869.786,170.153 L864.261868,164.63048 L869.752844,159.139504 Z M894.752844,159.139504 L900.303018,164.637212 L894.786,170.153 L889.261868,164.63048 L894.752844,159.139504 Z M819.752844,159.139504 L825.303018,164.637212 L819.786,170.153 L814.261868,164.63048 L819.752844,159.139504 Z M303.752844,159.139504 L309.303018,164.637212 L303.827218,170.113011 L303.786,170.153 L298.261868,164.63048 L303.752844,159.139504 Z M1011.75284,159.139504 L1017.30302,164.637212 L1011.786,170.153 L1006.26187,164.63048 L1011.75284,159.139504 Z M986.752844,159.139504 L992.303018,164.637212 L986.786,170.153 L981.261868,164.63048 L986.752844,159.139504 Z M1061.75284,159.139504 L1067.30302,164.637212 L1061.786,170.153 L1056.26187,164.63048 L1061.75284,159.139504 Z M1036.75284,159.139504 L1042.30302,164.637212 L1036.786,170.153 L1031.26187,164.63048 L1036.75284,159.139504 Z M1111.75284,159.139504 L1117.30302,164.637212 L1111.786,170.153 L1106.26187,164.63048 L1111.75284,159.139504 Z M1086.75284,159.139504 L1092.30302,164.637212 L1086.786,170.153 L1081.26187,164.63048 L1086.75284,159.139504 Z M832.285809,149.323035 L836.661724,153.69895 L832.285809,158.074865 L827.909894,153.69895 L832.285809,149.323035 Z M48.285809,149.323035 L52.6617239,153.69895 L48.285809,158.074865 L43.9098941,153.69895 L48.285809,149.323035 Z M1099.28581,149.323035 L1103.66172,153.69895 L1099.28581,158.074865 L1094.90989,153.69895 L1099.28581,149.323035 Z M1049.28581,149.323035 L1053.66172,153.69895 L1049.28581,158.074865 L1044.90989,153.69895 L1049.28581,149.323035 Z M1024.28581,149.323035 L1028.66172,153.69895 L1024.28581,158.074865 L1019.90989,153.69895 L1024.28581,149.323035 Z M999.285809,149.323035 L1003.66172,153.69895 L999.285809,158.074865 L994.909894,153.69895 L999.285809,149.323035 Z M974.285809,149.323035 L978.661724,153.69895 L974.285809,158.074865 L969.909894,153.69895 L974.285809,149.323035 Z M1124.28581,149.323035 L1128.66172,153.69895 L1124.28581,158.074865 L1119.90989,153.69895 L1124.28581,149.323035 Z M1074.28581,149.323035 L1078.66172,153.69895 L1074.28581,158.074865 L1069.90989,153.69895 L1074.28581,149.323035 Z M527.285809,149.323035 L531.661724,153.69895 L527.285809,158.074865 L522.909894,153.69895 L527.285809,149.323035 Z M552.285809,149.323035 L556.661724,153.69895 L552.285809,158.074865 L547.909894,153.69895 L552.285809,149.323035 Z M932.285809,149.323035 L936.661724,153.69895 L932.285809,158.074865 L927.909894,153.69895 L932.285809,149.323035 Z M882.285809,149.323035 L886.661724,153.69895 L882.285809,158.074865 L877.909894,153.69895 L882.285809,149.323035 Z M857.285809,149.323035 L861.661724,153.69895 L857.285809,158.074865 L852.909894,153.69895 L857.285809,149.323035 Z M807.285809,149.323035 L811.661724,153.69895 L807.285809,158.074865 L802.909894,153.69895 L807.285809,149.323035 Z M957.285809,149.323035 L961.661724,153.69895 L957.285809,158.074865 L952.909894,153.69895 L957.285809,149.323035 Z M907.285809,149.323035 L911.661724,153.69895 L907.285809,158.074865 L902.909894,153.69895 L907.285809,149.323035 Z M291.285809,149.323035 L295.661724,153.69895 L291.285809,158.074865 L286.909894,153.69895 L291.285809,149.323035 Z M140.285809,149.323035 L144.661724,153.69895 L140.285809,158.074865 L135.909894,153.69895 L140.285809,149.323035 Z M728.285809,149.323035 L732.661724,153.69895 L728.285809,158.074865 L723.909894,153.69895 L728.285809,149.323035 Z M678.285809,149.323035 L682.661724,153.69895 L678.285809,158.074865 L673.909894,153.69895 L678.285809,149.323035 Z M653.285809,149.323035 L657.661724,153.69895 L653.285809,158.074865 L648.909894,153.69895 L653.285809,149.323035 Z M628.285809,149.323035 L632.661724,153.69895 L628.285809,158.074865 L623.909894,153.69895 L628.285809,149.323035 Z M603.285809,149.323035 L607.661724,153.69895 L603.285809,158.074865 L598.909894,153.69895 L603.285809,149.323035 Z M207.285809,149.323035 L211.661724,153.69895 L207.285809,158.074865 L202.909894,153.69895 L207.285809,149.323035 Z M90.285809,149.323035 L94.6617239,153.69895 L90.285809,158.074865 L85.9098941,153.69895 L90.285809,149.323035 Z M502.285809,149.323035 L506.661724,153.69895 L502.285809,158.074865 L497.909894,153.69895 L502.285809,149.323035 Z M232.285809,149.323035 L236.661724,153.69895 L232.285809,158.074865 L227.909894,153.69895 L232.285809,149.323035 Z M182.285809,149.323035 L186.661724,153.69895 L182.285809,158.074865 L177.909894,153.69895 L182.285809,149.323035 Z M400.285809,149.323035 L404.661724,153.69895 L400.285809,158.074865 L395.909894,153.69895 L400.285809,149.323035 Z M350.285809,149.323035 L354.661724,153.69895 L350.285809,158.074865 L345.909894,153.69895 L350.285809,149.323035 Z M375.285809,149.323035 L379.661724,153.69895 L375.285809,158.074865 L370.909894,153.69895 L375.285809,149.323035 Z M23.285809,149.323035 L27.6617239,153.69895 L23.285809,158.074865 L18.9098941,153.69895 L23.285809,149.323035 Z M266.285809,149.323035 L270.661724,153.69895 L266.285809,158.074865 L261.909894,153.69895 L266.285809,149.323035 Z M316.285809,149.323035 L320.661724,153.69895 L316.285809,158.074865 L311.909894,153.69895 L316.285809,149.323035 Z M753.285809,149.323035 L757.661724,153.69895 L753.285809,158.074865 L748.909894,153.69895 L753.285809,149.323035 Z M115.285809,149.323035 L119.661724,153.69895 L115.285809,158.074865 L110.909894,153.69895 L115.285809,149.323035 Z M-1.71419102,149.323035 L2.66172386,153.69895 L-1.71419102,158.074865 L-6.0901059,153.69895 L-1.71419102,149.323035 Z M703.285809,149.323035 L707.661724,153.69895 L703.285809,158.074865 L698.909894,153.69895 L703.285809,149.323035 Z M945.285809,138.323035 L949.661724,142.69895 L945.285809,147.074865 L940.909894,142.69895 L945.285809,138.323035 Z M741.285809,138.323035 L745.661724,142.69895 L741.285809,147.074865 L736.909894,142.69895 L741.285809,138.323035 Z M716.285809,138.323035 L720.661724,142.69895 L716.285809,147.074865 L711.909894,142.69895 L716.285809,138.323035 Z M515.285809,138.323035 L519.661724,142.69895 L515.285809,147.074865 L510.909894,142.69895 L515.285809,138.323035 Z M363.285809,138.323035 L367.661724,142.69895 L363.285809,147.074865 L358.909894,142.69895 L363.285809,138.323035 Z M388.285809,138.323035 L392.661724,142.69895 L388.285809,147.074865 L383.909894,142.69895 L388.285809,138.323035 Z M279.285809,138.323035 L283.661724,142.69895 L279.285809,147.074865 L274.909894,142.69895 L279.285809,138.323035 Z M195.285809,138.323035 L199.661724,142.69895 L195.285809,147.074865 L190.909894,142.69895 L195.285809,138.323035 Z M220.285809,138.323035 L224.661724,142.69895 L220.285809,147.074865 L215.909894,142.69895 L220.285809,138.323035 Z M11.285809,138.323035 L15.6617239,142.69895 L11.285809,147.074865 L6.9098941,142.69895 L11.285809,138.323035 Z M36.285809,138.323035 L40.6617239,142.69895 L36.285809,147.074865 L31.9098941,142.69895 L36.285809,138.323035 Z M920.285809,138.323035 L924.661724,142.69895 L920.285809,147.074865 L915.909894,142.69895 L920.285809,138.323035 Z M128.285809,138.323035 L132.661724,142.69895 L128.285809,147.074865 L123.909894,142.69895 L128.285809,138.323035 Z M103.285809,138.323035 L107.661724,142.69895 L103.285809,147.074865 L98.9098941,142.69895 L103.285809,138.323035 Z M304.285809,138.323035 L308.661724,142.69895 L304.285809,147.074865 L299.909894,142.69895 L304.285809,138.323035 Z M540.285809,138.323035 L544.661724,142.69895 L540.285809,147.074865 L535.909894,142.69895 L540.285809,138.323035 Z M641.285809,138.323035 L645.661724,142.69895 L641.285809,147.074865 L636.909894,142.69895 L641.285809,138.323035 Z M616.285809,138.323035 L620.661724,142.69895 L616.285809,147.074865 L611.909894,142.69895 L616.285809,138.323035 Z M691.285809,138.323035 L695.661724,142.69895 L691.285809,147.074865 L686.909894,142.69895 L691.285809,138.323035 Z M666.285809,138.323035 L670.661724,142.69895 L666.285809,147.074865 L661.909894,142.69895 L666.285809,138.323035 Z M845.285809,138.323035 L849.661724,142.69895 L845.285809,147.074865 L840.909894,142.69895 L845.285809,138.323035 Z M820.285809,138.323035 L824.661724,142.69895 L820.285809,147.074865 L815.909894,142.69895 L820.285809,138.323035 Z M895.285809,138.323035 L899.661724,142.69895 L895.285809,147.074865 L890.909894,142.69895 L895.285809,138.323035 Z M870.285809,138.323035 L874.661724,142.69895 L870.285809,147.074865 L865.909894,142.69895 L870.285809,138.323035 Z M1012.28581,138.323035 L1016.66172,142.69895 L1012.28581,147.074865 L1007.90989,142.69895 L1012.28581,138.323035 Z M987.285809,138.323035 L991.661724,142.69895 L987.285809,147.074865 L982.909894,142.69895 L987.285809,138.323035 Z M1062.28581,138.323035 L1066.66172,142.69895 L1062.28581,147.074865 L1057.90989,142.69895 L1062.28581,138.323035 Z M1037.28581,138.323035 L1041.66172,142.69895 L1037.28581,147.074865 L1032.90989,142.69895 L1037.28581,138.323035 Z M1112.28581,138.323035 L1116.66172,142.69895 L1112.28581,147.074865 L1107.90989,142.69895 L1112.28581,138.323035 Z M1087.28581,138.323035 L1091.66172,142.69895 L1087.28581,147.074865 L1082.90989,142.69895 L1087.28581,138.323035 Z" id="dither" stroke="none" fill="url(#linearGradient-6)" fill-rule="evenodd" mask="url(#mask-5)"></path>
            </g>
        </g>
        <g id="face-1" mask="url(#mask-3)">
            <g transform="translate(370.000000, 116.000000)">
                <circle id="Oval" stroke="none" fill="#000000" fill-rule="evenodd" cx="3" cy="3" r="3"></circle>
                <circle id="Oval-Copy-17" stroke="none" fill="#000000" fill-rule="evenodd" cx="22" cy="3" r="3"></circle>
                <path d="M4,14.5 C6.83333333,16.8333333 9.66666667,18 12.5,18 C15.3333333,18 18.1666667,16.8333333 21,14.5" id="Path-2" stroke="#000000" stroke-width="4" fill="none" stroke-linecap="round"></path>
            </g>
        </g>
        <g id="face-2" mask="url(#mask-3)">
            <g transform="translate(446.000000, 116.000000)">
                <circle id="Oval" stroke="none" fill="#000000" fill-rule="evenodd" cx="3" cy="3" r="3"></circle>
                <circle id="Oval-Copy-17" stroke="none" fill="#000000" fill-rule="evenodd" cx="22" cy="3" r="3"></circle>
                <path d="M4,14.5 C6.83333333,16.8333333 9.66666667,18 12.5,18 C15.3333333,18 18.1666667,16.8333333 21,14.5" id="Path-2" stroke="#000000" stroke-width="4" fill="none" stroke-linecap="round"></path>
            </g>
        </g>
    </g>
</svg>